<?xml version="1.0" encoding="utf-8"?>
<!-- Generator: Adobe Illustrator 27.2.0, SVG Export Plug-In . SVG Version: 6.00 Build 0)  -->
<svg version="1.1" id="Layer_1" xmlns="http://www.w3.org/2000/svg" xmlns:xlink="http://www.w3.org/1999/xlink" x="0px" y="0px"
	 viewBox="0 0 300 300" style="enable-background:new 0 0 300 300;" xml:space="preserve">
<style type="text/css">
	.st0{fill:none;}
	
		.st1{fill:#00BFC4;fill-opacity:0.55;stroke:#00BFC4;stroke-width:0.71;stroke-linecap:round;stroke-linejoin:round;stroke-miterlimit:10;stroke-opacity:0.55;}
	
		.st2{fill:#F8766D;fill-opacity:0.55;stroke:#F8766D;stroke-width:0.71;stroke-linecap:round;stroke-linejoin:round;stroke-miterlimit:10;stroke-opacity:0.55;}
	
		.st3{fill:#C77CFF;fill-opacity:0.55;stroke:#C77CFF;stroke-width:0.71;stroke-linecap:round;stroke-linejoin:round;stroke-miterlimit:10;stroke-opacity:0.55;}
	
		.st4{fill:#7CAE00;fill-opacity:0.55;stroke:#7CAE00;stroke-width:0.71;stroke-linecap:round;stroke-linejoin:round;stroke-miterlimit:10;stroke-opacity:0.55;}
	.st5{fill:#FFFFFF;}
	.st6{fill:#CC66FF;}
	.st7{font-family:'Arial-BoldMT';}
	.st8{font-size:12px;}
	.st9{fill:#3FBBCC;}
	.st10{fill:#566A0B;}
	.st11{fill:#FF3A45;}
	.st12{fill:#C77CFF;stroke:#C77CFF;stroke-miterlimit:10;}
	.st13{fill:#00BFC4;stroke:#00BFC4;stroke-miterlimit:10;}
	.st14{fill:#7CAE00;stroke:#7CAE00;stroke-miterlimit:10;}
	.st15{fill:#F8766D;stroke:#F8766D;stroke-miterlimit:10;}
	.st16{fill:#00BFC4;}
	.st17{font-family:'MyriadPro-Regular';}
	.st18{fill:#7CAE00;}
	.st19{fill:#F8766D;}
	.st20{fill:#C77CFF;}
</style>
<rect class="st0" width="300" height="300"/>
<rect x="57.2" y="23.3" class="st0" width="158.9" height="244.9"/>
<circle class="st1" cx="121.2" cy="116.6" r="5.2"/>
<circle class="st2" cx="74.7" cy="233.3" r="5.2"/>
<circle class="st3" cx="69.6" cy="58.3" r="5.2"/>
<circle class="st4" cx="90.2" cy="175" r="5.2"/>
<circle class="st1" cx="160.7" cy="116.6" r="5.2"/>
<circle class="st2" cx="64.4" cy="233.3" r="5.2"/>
<circle class="st3" cx="74.1" cy="58.3" r="5.2"/>
<circle class="st4" cx="102.9" cy="175" r="5.2"/>
<circle class="st1" cx="128" cy="116.6" r="5.2"/>
<circle class="st2" cx="73.1" cy="233.3" r="5.2"/>
<circle class="st3" cx="76" cy="58.3" r="5.2"/>
<circle class="st4" cx="90.4" cy="175" r="5.2"/>
<circle class="st1" cx="139.4" cy="116.6" r="5.2"/>
<circle class="st2" cx="70" cy="233.3" r="5.2"/>
<circle class="st3" cx="72.8" cy="58.3" r="5.2"/>
<circle class="st4" cx="108.9" cy="175" r="5.2"/>
<circle class="st1" cx="143.6" cy="116.6" r="5.2"/>
<circle class="st2" cx="64.4" cy="233.3" r="5.2"/>
<circle class="st3" cx="78.4" cy="58.3" r="5.2"/>
<circle class="st4" cx="92.4" cy="175" r="5.2"/>
<circle class="st1" cx="141.5" cy="116.6" r="5.2"/>
<circle class="st2" cx="64.4" cy="233.3" r="5.2"/>
<circle class="st3" cx="64.4" cy="58.3" r="5.2"/>
<circle class="st4" cx="112.6" cy="175" r="5.2"/>
<circle class="st1" cx="118" cy="116.6" r="5.2"/>
<circle class="st2" cx="70.7" cy="233.3" r="5.2"/>
<circle class="st3" cx="89.3" cy="58.3" r="5.2"/>
<circle class="st4" cx="103" cy="175" r="5.2"/>
<circle class="st1" cx="127.6" cy="116.6" r="5.2"/>
<circle class="st2" cx="64.4" cy="233.3" r="5.2"/>
<circle class="st3" cx="82.5" cy="58.3" r="5.2"/>
<circle class="st4" cx="91.5" cy="175" r="5.2"/>
<circle class="st1" cx="151.1" cy="116.6" r="5.2"/>
<circle class="st2" cx="64.4" cy="233.3" r="5.2"/>
<circle class="st3" cx="64.4" cy="58.3" r="5.2"/>
<circle class="st4" cx="110.7" cy="175" r="5.2"/>
<circle class="st1" cx="144.9" cy="116.6" r="5.2"/>
<circle class="st2" cx="77.6" cy="233.3" r="5.2"/>
<circle class="st3" cx="80.8" cy="58.3" r="5.2"/>
<circle class="st4" cx="120.2" cy="175" r="5.2"/>
<circle class="st1" cx="127.6" cy="116.6" r="5.2"/>
<circle class="st2" cx="64.4" cy="233.3" r="5.2"/>
<circle class="st3" cx="64.4" cy="58.3" r="5.2"/>
<circle class="st4" cx="91.5" cy="175" r="5.2"/>
<circle class="st1" cx="139.8" cy="116.6" r="5.2"/>
<circle class="st2" cx="64.4" cy="233.3" r="5.2"/>
<circle class="st3" cx="70.7" cy="58.3" r="5.2"/>
<circle class="st4" cx="108.4" cy="175" r="5.2"/>
<circle class="st1" cx="120.1" cy="116.6" r="5.2"/>
<circle class="st2" cx="73.4" cy="233.3" r="5.2"/>
<circle class="st3" cx="79.5" cy="58.3" r="5.2"/>
<circle class="st4" cx="97.5" cy="175" r="5.2"/>
<circle class="st1" cx="150.2" cy="116.6" r="5.2"/>
<circle class="st2" cx="64.4" cy="233.3" r="5.2"/>
<circle class="st3" cx="68.9" cy="58.3" r="5.2"/>
<circle class="st4" cx="109.6" cy="175" r="5.2"/>
<circle class="st1" cx="123.3" cy="116.6" r="5.2"/>
<circle class="st2" cx="64.4" cy="233.3" r="5.2"/>
<circle class="st3" cx="64.4" cy="58.3" r="5.2"/>
<circle class="st4" cx="96.5" cy="175" r="5.2"/>
<circle class="st1" cx="130.1" cy="116.6" r="5.2"/>
<circle class="st2" cx="67.7" cy="233.3" r="5.2"/>
<circle class="st3" cx="74.3" cy="58.3" r="5.2"/>
<circle class="st4" cx="103.8" cy="175" r="5.2"/>
<circle class="st1" cx="141.9" cy="116.6" r="5.2"/>
<circle class="st2" cx="64.4" cy="233.3" r="5.2"/>
<circle class="st3" cx="66.5" cy="58.3" r="5.2"/>
<circle class="st4" cx="89.6" cy="175" r="5.2"/>
<circle class="st1" cx="157.6" cy="116.6" r="5.2"/>
<circle class="st2" cx="69.1" cy="233.3" r="5.2"/>
<circle class="st3" cx="97.1" cy="58.3" r="5.2"/>
<circle class="st4" cx="115.7" cy="175" r="5.2"/>
<circle class="st1" cx="104.9" cy="116.6" r="5.2"/>
<circle class="st2" cx="70.2" cy="233.3" r="5.2"/>
<circle class="st3" cx="81.8" cy="58.3" r="5.2"/>
<circle class="st4" cx="81.8" cy="175" r="5.2"/>
<circle class="st1" cx="139.8" cy="116.6" r="5.2"/>
<circle class="st2" cx="64.4" cy="233.3" r="5.2"/>
<circle class="st3" cx="70.7" cy="58.3" r="5.2"/>
<circle class="st4" cx="108.4" cy="175" r="5.2"/>
<circle class="st1" cx="136.7" cy="116.6" r="5.2"/>
<circle class="st2" cx="70" cy="233.3" r="5.2"/>
<circle class="st3" cx="75.5" cy="58.3" r="5.2"/>
<circle class="st4" cx="86.7" cy="175" r="5.2"/>
<circle class="st1" cx="156.4" cy="116.6" r="5.2"/>
<circle class="st2" cx="71" cy="233.3" r="5.2"/>
<circle class="st3" cx="71" cy="58.3" r="5.2"/>
<circle class="st4" cx="130.1" cy="175" r="5.2"/>
<circle class="st1" cx="150" cy="116.6" r="5.2"/>
<circle class="st2" cx="64.4" cy="233.3" r="5.2"/>
<circle class="st3" cx="69.8" cy="58.3" r="5.2"/>
<circle class="st4" cx="123.3" cy="175" r="5.2"/>
<circle class="st1" cx="169.2" cy="116.6" r="5.2"/>
<circle class="st2" cx="64.4" cy="233.3" r="5.2"/>
<circle class="st3" cx="68" cy="58.3" r="5.2"/>
<circle class="st4" cx="136.7" cy="175" r="5.2"/>
<circle class="st1" cx="131.6" cy="116.6" r="5.2"/>
<circle class="st2" cx="66.1" cy="233.3" r="5.2"/>
<circle class="st3" cx="69.5" cy="58.3" r="5.2"/>
<circle class="st4" cx="96.3" cy="175" r="5.2"/>
<circle class="st1" cx="105.5" cy="116.6" r="5.2"/>
<circle class="st2" cx="84.1" cy="233.3" r="5.2"/>
<circle class="st3" cx="75.9" cy="58.3" r="5.2"/>
<circle class="st4" cx="87.4" cy="175" r="5.2"/>
<circle class="st1" cx="169.5" cy="116.6" r="5.2"/>
<circle class="st2" cx="64.4" cy="233.3" r="5.2"/>
<circle class="st3" cx="64.4" cy="58.3" r="5.2"/>
<circle class="st4" cx="117" cy="175" r="5.2"/>
<circle class="st1" cx="151.1" cy="116.6" r="5.2"/>
<circle class="st2" cx="64.4" cy="233.3" r="5.2"/>
<circle class="st3" cx="64.4" cy="58.3" r="5.2"/>
<circle class="st4" cx="151.1" cy="175" r="5.2"/>
<circle class="st1" cx="122.9" cy="116.6" r="5.2"/>
<circle class="st2" cx="71.3" cy="233.3" r="5.2"/>
<circle class="st3" cx="64.4" cy="58.3" r="5.2"/>
<circle class="st4" cx="95.4" cy="175" r="5.2"/>
<circle class="st1" cx="135" cy="116.6" r="5.2"/>
<circle class="st2" cx="67.8" cy="233.3" r="5.2"/>
<circle class="st3" cx="71.1" cy="58.3" r="5.2"/>
<circle class="st4" cx="98" cy="175" r="5.2"/>
<circle class="st1" cx="144.7" cy="116.6" r="5.2"/>
<circle class="st2" cx="64.4" cy="233.3" r="5.2"/>
<circle class="st3" cx="64.4" cy="58.3" r="5.2"/>
<circle class="st4" cx="96.5" cy="175" r="5.2"/>
<circle class="st1" cx="100.5" cy="116.6" r="5.2"/>
<circle class="st2" cx="64.4" cy="233.3" r="5.2"/>
<circle class="st3" cx="64.4" cy="58.3" r="5.2"/>
<circle class="st4" cx="91.5" cy="175" r="5.2"/>
<circle class="st1" cx="163.3" cy="116.6" r="5.2"/>
<circle class="st2" cx="64.4" cy="233.3" r="5.2"/>
<circle class="st3" cx="64.4" cy="58.3" r="5.2"/>
<circle class="st4" cx="125.2" cy="175" r="5.2"/>
<circle class="st1" cx="109.2" cy="116.6" r="5.2"/>
<circle class="st2" cx="83.2" cy="233.3" r="5.2"/>
<circle class="st3" cx="76" cy="58.3" r="5.2"/>
<circle class="st4" cx="87.5" cy="175" r="5.2"/>
<circle class="st1" cx="127" cy="116.6" r="5.2"/>
<circle class="st2" cx="64.4" cy="233.3" r="5.2"/>
<circle class="st3" cx="74.1" cy="58.3" r="5.2"/>
<circle class="st4" cx="102.9" cy="175" r="5.2"/>
<circle class="st1" cx="145.7" cy="116.6" r="5.2"/>
<circle class="st2" cx="78" cy="233.3" r="5.2"/>
<circle class="st3" cx="78" cy="58.3" r="5.2"/>
<circle class="st4" cx="105.1" cy="175" r="5.2"/>
<circle class="st1" cx="160.7" cy="116.6" r="5.2"/>
<circle class="st2" cx="64.4" cy="233.3" r="5.2"/>
<circle class="st3" cx="76.5" cy="58.3" r="5.2"/>
<circle class="st4" cx="96.5" cy="175" r="5.2"/>
<circle class="st1" cx="108.3" cy="116.6" r="5.2"/>
<circle class="st2" cx="69.6" cy="233.3" r="5.2"/>
<circle class="st3" cx="69.6" cy="58.3" r="5.2"/>
<circle class="st4" cx="85.1" cy="175" r="5.2"/>
<circle class="st1" cx="106.8" cy="116.6" r="5.2"/>
<circle class="st2" cx="75.9" cy="233.3" r="5.2"/>
<circle class="st3" cx="82.8" cy="58.3" r="5.2"/>
<circle class="st4" cx="86.2" cy="175" r="5.2"/>
<circle class="st1" cx="102.5" cy="116.6" r="5.2"/>
<circle class="st2" cx="83.5" cy="233.3" r="5.2"/>
<circle class="st3" cx="91.4" cy="58.3" r="5.2"/>
<circle class="st4" cx="83.5" cy="175" r="5.2"/>
<circle class="st1" cx="115.3" cy="116.6" r="5.2"/>
<circle class="st2" cx="66.1" cy="233.3" r="5.2"/>
<circle class="st3" cx="69.3" cy="58.3" r="5.2"/>
<circle class="st4" cx="94" cy="175" r="5.2"/>
<circle class="st1" cx="140.5" cy="116.6" r="5.2"/>
<circle class="st2" cx="64.4" cy="233.3" r="5.2"/>
<circle class="st3" cx="87.2" cy="58.3" r="5.2"/>
<circle class="st4" cx="132.9" cy="175" r="5.2"/>
<circle class="st1" cx="148.9" cy="116.6" r="5.2"/>
<circle class="st2" cx="69.9" cy="233.3" r="5.2"/>
<circle class="st3" cx="64.4" cy="58.3" r="5.2"/>
<circle class="st4" cx="94.4" cy="175" r="5.2"/>
<circle class="st1" cx="118.6" cy="116.6" r="5.2"/>
<circle class="st2" cx="64.4" cy="233.3" r="5.2"/>
<circle class="st3" cx="64.4" cy="58.3" r="5.2"/>
<circle class="st4" cx="100.5" cy="175" r="5.2"/>
<circle class="st1" cx="126.8" cy="116.6" r="5.2"/>
<circle class="st2" cx="80.8" cy="233.3" r="5.2"/>
<circle class="st3" cx="87.4" cy="58.3" r="5.2"/>
<circle class="st4" cx="110.4" cy="175" r="5.2"/>
<circle class="st1" cx="108.9" cy="116.6" r="5.2"/>
<circle class="st2" cx="99.6" cy="233.3" r="5.2"/>
<circle class="st3" cx="92.2" cy="58.3" r="5.2"/>
<circle class="st4" cx="84.8" cy="175" r="5.2"/>
<circle class="st1" cx="112.6" cy="116.6" r="5.2"/>
<circle class="st2" cx="64.4" cy="233.3" r="5.2"/>
<circle class="st3" cx="76.5" cy="58.3" r="5.2"/>
<circle class="st4" cx="88.5" cy="175" r="5.2"/>
<circle class="st1" cx="104.6" cy="116.6" r="5.2"/>
<circle class="st2" cx="72.4" cy="233.3" r="5.2"/>
<circle class="st3" cx="104.6" cy="58.3" r="5.2"/>
<circle class="st4" cx="80.5" cy="175" r="5.2"/>
<circle class="st1" cx="172.8" cy="116.6" r="5.2"/>
<circle class="st2" cx="64.4" cy="233.3" r="5.2"/>
<circle class="st3" cx="64.4" cy="58.3" r="5.2"/>
<circle class="st4" cx="126.3" cy="175" r="5.2"/>
<circle class="st1" cx="168.6" cy="116.6" r="5.2"/>
<circle class="st2" cx="71.1" cy="233.3" r="5.2"/>
<circle class="st3" cx="71.1" cy="58.3" r="5.2"/>
<circle class="st4" cx="114.8" cy="175" r="5.2"/>
<circle class="st1" cx="96.5" cy="116.6" r="5.2"/>
<circle class="st2" cx="64.4" cy="233.3" r="5.2"/>
<circle class="st3" cx="80.5" cy="58.3" r="5.2"/>
<circle class="st4" cx="80.5" cy="175" r="5.2"/>
<circle class="st1" cx="141.5" cy="116.6" r="5.2"/>
<circle class="st2" cx="74.1" cy="233.3" r="5.2"/>
<circle class="st3" cx="69.2" cy="58.3" r="5.2"/>
<circle class="st4" cx="83.7" cy="175" r="5.2"/>
<circle class="st1" cx="118.1" cy="116.6" r="5.2"/>
<circle class="st2" cx="64.4" cy="233.3" r="5.2"/>
<circle class="st3" cx="64.4" cy="58.3" r="5.2"/>
<circle class="st4" cx="93.3" cy="175" r="5.2"/>
<circle class="st1" cx="138.9" cy="116.6" r="5.2"/>
<circle class="st2" cx="64.4" cy="233.3" r="5.2"/>
<circle class="st3" cx="64.4" cy="58.3" r="5.2"/>
<circle class="st4" cx="99.4" cy="175" r="5.2"/>
<circle class="st1" cx="160.7" cy="116.6" r="5.2"/>
<circle class="st2" cx="64.4" cy="233.3" r="5.2"/>
<circle class="st3" cx="64.4" cy="58.3" r="5.2"/>
<circle class="st4" cx="138.5" cy="175" r="5.2"/>
<circle class="st1" cx="131.8" cy="116.6" r="5.2"/>
<circle class="st2" cx="64.4" cy="233.3" r="5.2"/>
<circle class="st3" cx="64.4" cy="58.3" r="5.2"/>
<circle class="st4" cx="98.1" cy="175" r="5.2"/>
<circle class="st1" cx="128.6" cy="116.6" r="5.2"/>
<circle class="st2" cx="69.8" cy="233.3" r="5.2"/>
<circle class="st3" cx="69.8" cy="58.3" r="5.2"/>
<circle class="st4" cx="80.5" cy="175" r="5.2"/>
<circle class="st1" cx="208.9" cy="116.6" r="5.2"/>
<circle class="st2" cx="64.4" cy="233.3" r="5.2"/>
<circle class="st3" cx="82.5" cy="58.3" r="5.2"/>
<circle class="st4" cx="208.9" cy="175" r="5.2"/>
<circle class="st1" cx="117" cy="116.6" r="5.2"/>
<circle class="st2" cx="67.7" cy="233.3" r="5.2"/>
<circle class="st3" cx="64.4" cy="58.3" r="5.2"/>
<circle class="st4" cx="97.3" cy="175" r="5.2"/>
<circle class="st1" cx="164.4" cy="116.6" r="5.2"/>
<circle class="st2" cx="75.5" cy="233.3" r="5.2"/>
<circle class="st3" cx="86.7" cy="58.3" r="5.2"/>
<circle class="st4" cx="97.8" cy="175" r="5.2"/>
<circle class="st1" cx="167.6" cy="116.6" r="5.2"/>
<circle class="st2" cx="74.7" cy="233.3" r="5.2"/>
<circle class="st3" cx="64.4" cy="58.3" r="5.2"/>
<circle class="st4" cx="118.6" cy="175" r="5.2"/>
<circle class="st1" cx="129.1" cy="116.6" r="5.2"/>
<circle class="st2" cx="83.4" cy="233.3" r="5.2"/>
<circle class="st3" cx="87.2" cy="58.3" r="5.2"/>
<circle class="st4" cx="110.1" cy="175" r="5.2"/>
<circle class="st1" cx="126.3" cy="116.6" r="5.2"/>
<circle class="st2" cx="64.4" cy="233.3" r="5.2"/>
<circle class="st3" cx="64.4" cy="58.3" r="5.2"/>
<circle class="st4" cx="85.1" cy="175" r="5.2"/>
<circle class="st1" cx="136.7" cy="116.6" r="5.2"/>
<circle class="st2" cx="70.4" cy="233.3" r="5.2"/>
<circle class="st3" cx="70.4" cy="58.3" r="5.2"/>
<circle class="st4" cx="88.5" cy="175" r="5.2"/>
<circle class="st1" cx="119.3" cy="116.6" r="5.2"/>
<circle class="st2" cx="67.3" cy="233.3" r="5.2"/>
<circle class="st3" cx="78.9" cy="58.3" r="5.2"/>
<circle class="st4" cx="96.2" cy="175" r="5.2"/>
<circle class="st1" cx="106.9" cy="116.6" r="5.2"/>
<circle class="st2" cx="89.9" cy="233.3" r="5.2"/>
<circle class="st3" cx="64.4" cy="58.3" r="5.2"/>
<circle class="st4" cx="64.4" cy="175" r="5.2"/>
<circle class="st1" cx="140.1" cy="116.6" r="5.2"/>
<circle class="st2" cx="64.4" cy="233.3" r="5.2"/>
<circle class="st3" cx="71.3" cy="58.3" r="5.2"/>
<circle class="st4" cx="105.7" cy="175" r="5.2"/>
<circle class="st1" cx="145.9" cy="116.6" r="5.2"/>
<circle class="st2" cx="75.5" cy="233.3" r="5.2"/>
<circle class="st3" cx="71.8" cy="58.3" r="5.2"/>
<circle class="st4" cx="101.5" cy="175" r="5.2"/>
<circle class="st1" cx="174.9" cy="116.6" r="5.2"/>
<circle class="st2" cx="64.4" cy="233.3" r="5.2"/>
<circle class="st3" cx="64.4" cy="58.3" r="5.2"/>
<circle class="st4" cx="132.4" cy="175" r="5.2"/>
<circle class="st1" cx="164.9" cy="116.6" r="5.2"/>
<circle class="st2" cx="67.6" cy="233.3" r="5.2"/>
<circle class="st3" cx="67.6" cy="58.3" r="5.2"/>
<circle class="st4" cx="146.1" cy="175" r="5.2"/>
<circle class="st1" cx="144.7" cy="116.6" r="5.2"/>
<circle class="st2" cx="70.4" cy="233.3" r="5.2"/>
<circle class="st3" cx="66.4" cy="58.3" r="5.2"/>
<circle class="st4" cx="96.5" cy="175" r="5.2"/>
<circle class="st1" cx="143.2" cy="116.6" r="5.2"/>
<circle class="st2" cx="64.4" cy="233.3" r="5.2"/>
<circle class="st3" cx="71" cy="58.3" r="5.2"/>
<circle class="st4" cx="97.3" cy="175" r="5.2"/>
<circle class="st1" cx="150.4" cy="116.6" r="5.2"/>
<circle class="st2" cx="67.9" cy="233.3" r="5.2"/>
<circle class="st3" cx="67.9" cy="58.3" r="5.2"/>
<circle class="st4" cx="122.9" cy="175" r="5.2"/>
<circle class="st1" cx="151.1" cy="116.6" r="5.2"/>
<circle class="st2" cx="64.4" cy="233.3" r="5.2"/>
<circle class="st3" cx="64.4" cy="58.3" r="5.2"/>
<circle class="st4" cx="141.5" cy="175" r="5.2"/>
<circle class="st1" cx="91.8" cy="116.6" r="5.2"/>
<circle class="st2" cx="83.9" cy="233.3" r="5.2"/>
<circle class="st3" cx="78.1" cy="58.3" r="5.2"/>
<circle class="st4" cx="76.1" cy="175" r="5.2"/>
<circle class="st1" cx="122.2" cy="116.6" r="5.2"/>
<circle class="st2" cx="64.4" cy="233.3" r="5.2"/>
<circle class="st3" cx="64.4" cy="58.3" r="5.2"/>
<circle class="st4" cx="97.4" cy="175" r="5.2"/>
<circle class="st1" cx="130.6" cy="116.6" r="5.2"/>
<circle class="st2" cx="82.5" cy="233.3" r="5.2"/>
<circle class="st3" cx="94.5" cy="58.3" r="5.2"/>
<circle class="st4" cx="112.6" cy="175" r="5.2"/>
<circle class="st1" cx="107.8" cy="116.6" r="5.2"/>
<circle class="st2" cx="64.4" cy="233.3" r="5.2"/>
<circle class="st3" cx="64.4" cy="58.3" r="5.2"/>
<circle class="st4" cx="83.7" cy="175" r="5.2"/>
<circle class="st1" cx="134" cy="116.6" r="5.2"/>
<circle class="st2" cx="85.8" cy="233.3" r="5.2"/>
<circle class="st3" cx="69.8" cy="58.3" r="5.2"/>
<circle class="st4" cx="91.2" cy="175" r="5.2"/>
<circle class="st1" cx="129.2" cy="116.6" r="5.2"/>
<circle class="st2" cx="64.4" cy="233.3" r="5.2"/>
<circle class="st3" cx="64.4" cy="58.3" r="5.2"/>
<circle class="st4" cx="94.3" cy="175" r="5.2"/>
<circle class="st1" cx="155.7" cy="116.6" r="5.2"/>
<circle class="st2" cx="72" cy="233.3" r="5.2"/>
<circle class="st3" cx="64.4" cy="58.3" r="5.2"/>
<circle class="st4" cx="117.7" cy="175" r="5.2"/>
<circle class="st1" cx="117.7" cy="116.6" r="5.2"/>
<circle class="st2" cx="64.4" cy="233.3" r="5.2"/>
<circle class="st3" cx="64.4" cy="58.3" r="5.2"/>
<circle class="st4" cx="79.6" cy="175" r="5.2"/>
<circle class="st1" cx="150.5" cy="116.6" r="5.2"/>
<circle class="st2" cx="72.5" cy="233.3" r="5.2"/>
<circle class="st3" cx="67.7" cy="58.3" r="5.2"/>
<circle class="st4" cx="100.1" cy="175" r="5.2"/>
<circle class="st1" cx="140.9" cy="116.6" r="5.2"/>
<circle class="st2" cx="72.9" cy="233.3" r="5.2"/>
<circle class="st3" cx="64.4" cy="58.3" r="5.2"/>
<circle class="st4" cx="81.4" cy="175" r="5.2"/>
<circle class="st1" cx="117.3" cy="116.6" r="5.2"/>
<circle class="st2" cx="75" cy="233.3" r="5.2"/>
<circle class="st3" cx="75" cy="58.3" r="5.2"/>
<circle class="st4" cx="78.5" cy="175" r="5.2"/>
<circle class="st1" cx="145.7" cy="116.6" r="5.2"/>
<circle class="st2" cx="68.9" cy="233.3" r="5.2"/>
<circle class="st3" cx="64.4" cy="58.3" r="5.2"/>
<circle class="st4" cx="109.6" cy="175" r="5.2"/>
<circle class="st1" cx="136.7" cy="116.6" r="5.2"/>
<circle class="st2" cx="83.4" cy="233.3" r="5.2"/>
<circle class="st3" cx="72" cy="58.3" r="5.2"/>
<circle class="st4" cx="102.4" cy="175" r="5.2"/>
<circle class="st1" cx="163.3" cy="116.6" r="5.2"/>
<circle class="st2" cx="64.4" cy="233.3" r="5.2"/>
<circle class="st3" cx="64.4" cy="58.3" r="5.2"/>
<circle class="st4" cx="94.8" cy="175" r="5.2"/>
<circle class="st1" cx="142.2" cy="116.6" r="5.2"/>
<circle class="st2" cx="68.1" cy="233.3" r="5.2"/>
<circle class="st3" cx="64.4" cy="58.3" r="5.2"/>
<circle class="st4" cx="120" cy="175" r="5.2"/>
<circle class="st1" cx="129.8" cy="116.6" r="5.2"/>
<circle class="st2" cx="109.1" cy="233.3" r="5.2"/>
<circle class="st3" cx="88.5" cy="58.3" r="5.2"/>
<circle class="st4" cx="64.4" cy="175" r="5.2"/>
<circle class="st1" cx="119.5" cy="116.6" r="5.2"/>
<circle class="st2" cx="71.3" cy="233.3" r="5.2"/>
<circle class="st3" cx="71.3" cy="58.3" r="5.2"/>
<circle class="st4" cx="91.9" cy="175" r="5.2"/>
<circle class="st1" cx="130.6" cy="116.6" r="5.2"/>
<circle class="st2" cx="76.5" cy="233.3" r="5.2"/>
<circle class="st3" cx="70.4" cy="58.3" r="5.2"/>
<circle class="st4" cx="100.5" cy="175" r="5.2"/>
<circle class="st1" cx="111.6" cy="116.6" r="5.2"/>
<circle class="st2" cx="80.2" cy="233.3" r="5.2"/>
<circle class="st3" cx="83" cy="58.3" r="5.2"/>
<circle class="st4" cx="93" cy="175" r="5.2"/>
<circle class="st1" cx="99.1" cy="116.6" r="5.2"/>
<circle class="st2" cx="84.6" cy="233.3" r="5.2"/>
<circle class="st3" cx="79" cy="58.3" r="5.2"/>
<circle class="st4" cx="89.1" cy="175" r="5.2"/>
<circle class="st1" cx="120" cy="116.6" r="5.2"/>
<circle class="st2" cx="81.1" cy="233.3" r="5.2"/>
<circle class="st3" cx="86.7" cy="58.3" r="5.2"/>
<circle class="st4" cx="81.1" cy="175" r="5.2"/>
<circle class="st1" cx="130.1" cy="116.6" r="5.2"/>
<circle class="st2" cx="68.8" cy="233.3" r="5.2"/>
<circle class="st3" cx="68.8" cy="58.3" r="5.2"/>
<circle class="st4" cx="81.9" cy="175" r="5.2"/>
<circle class="st1" cx="138.1" cy="116.6" r="5.2"/>
<circle class="st2" cx="67.4" cy="233.3" r="5.2"/>
<circle class="st3" cx="70.3" cy="58.3" r="5.2"/>
<circle class="st4" cx="105.7" cy="175" r="5.2"/>
<circle class="st1" cx="100.5" cy="116.6" r="5.2"/>
<circle class="st2" cx="64.4" cy="233.3" r="5.2"/>
<circle class="st3" cx="64.4" cy="58.3" r="5.2"/>
<circle class="st4" cx="88.5" cy="175" r="5.2"/>
<circle class="st1" cx="123.5" cy="116.6" r="5.2"/>
<circle class="st2" cx="84.1" cy="233.3" r="5.2"/>
<circle class="st3" cx="71" cy="58.3" r="5.2"/>
<circle class="st4" cx="103.8" cy="175" r="5.2"/>
<circle class="st1" cx="116" cy="116.6" r="5.2"/>
<circle class="st2" cx="68.6" cy="233.3" r="5.2"/>
<circle class="st3" cx="70.6" cy="58.3" r="5.2"/>
<circle class="st4" cx="87.1" cy="175" r="5.2"/>
<circle class="st1" cx="116" cy="116.6" r="5.2"/>
<circle class="st2" cx="95.4" cy="233.3" r="5.2"/>
<circle class="st3" cx="95.4" cy="58.3" r="5.2"/>
<circle class="st4" cx="95.4" cy="175" r="5.2"/>
<circle class="st1" cx="120.6" cy="116.6" r="5.2"/>
<circle class="st2" cx="68.4" cy="233.3" r="5.2"/>
<circle class="st3" cx="72.4" cy="58.3" r="5.2"/>
<circle class="st4" cx="92.5" cy="175" r="5.2"/>
<circle class="st1" cx="133.3" cy="116.6" r="5.2"/>
<circle class="st2" cx="82.2" cy="233.3" r="5.2"/>
<circle class="st3" cx="82.2" cy="58.3" r="5.2"/>
<circle class="st4" cx="100" cy="175" r="5.2"/>
<circle class="st1" cx="170.9" cy="116.6" r="5.2"/>
<circle class="st2" cx="72" cy="233.3" r="5.2"/>
<circle class="st3" cx="72" cy="58.3" r="5.2"/>
<circle class="st4" cx="117.7" cy="175" r="5.2"/>
<circle class="st1" cx="114.1" cy="116.6" r="5.2"/>
<circle class="st2" cx="64.4" cy="233.3" r="5.2"/>
<circle class="st3" cx="68.9" cy="58.3" r="5.2"/>
<circle class="st4" cx="105.1" cy="175" r="5.2"/>
<circle class="st1" cx="117" cy="116.6" r="5.2"/>
<circle class="st2" cx="77.6" cy="233.3" r="5.2"/>
<circle class="st3" cx="80.8" cy="58.3" r="5.2"/>
<circle class="st4" cx="97.3" cy="175" r="5.2"/>
<circle class="st1" cx="107.3" cy="116.6" r="5.2"/>
<circle class="st2" cx="76.4" cy="233.3" r="5.2"/>
<circle class="st3" cx="78.4" cy="58.3" r="5.2"/>
<circle class="st4" cx="93.3" cy="175" r="5.2"/>
<circle class="st1" cx="114.2" cy="116.6" r="5.2"/>
<circle class="st2" cx="69.4" cy="233.3" r="5.2"/>
<circle class="st3" cx="74.4" cy="58.3" r="5.2"/>
<circle class="st4" cx="74.4" cy="175" r="5.2"/>
<circle class="st1" cx="148.7" cy="116.6" r="5.2"/>
<circle class="st2" cx="64.4" cy="233.3" r="5.2"/>
<circle class="st3" cx="64.4" cy="58.3" r="5.2"/>
<circle class="st4" cx="112.6" cy="175" r="5.2"/>
<circle class="st1" cx="131.1" cy="116.6" r="5.2"/>
<circle class="st2" cx="64.4" cy="233.3" r="5.2"/>
<circle class="st3" cx="64.4" cy="58.3" r="5.2"/>
<circle class="st4" cx="120" cy="175" r="5.2"/>
<circle class="st1" cx="112.6" cy="116.6" r="5.2"/>
<circle class="st2" cx="69.8" cy="233.3" r="5.2"/>
<circle class="st3" cx="75.1" cy="58.3" r="5.2"/>
<circle class="st4" cx="75.1" cy="175" r="5.2"/>
<circle class="st1" cx="103.3" cy="116.6" r="5.2"/>
<circle class="st2" cx="82.9" cy="233.3" r="5.2"/>
<circle class="st3" cx="75.5" cy="58.3" r="5.2"/>
<circle class="st4" cx="90.3" cy="175" r="5.2"/>
<circle class="st1" cx="138.5" cy="116.6" r="5.2"/>
<circle class="st2" cx="89.7" cy="233.3" r="5.2"/>
<circle class="st3" cx="87.9" cy="58.3" r="5.2"/>
<circle class="st4" cx="134.9" cy="175" r="5.2"/>
<circle class="st1" cx="142.5" cy="116.6" r="5.2"/>
<circle class="st2" cx="64.4" cy="233.3" r="5.2"/>
<circle class="st3" cx="68.3" cy="58.3" r="5.2"/>
<circle class="st4" cx="103.5" cy="175" r="5.2"/>
<circle class="st1" cx="126.3" cy="116.6" r="5.2"/>
<circle class="st2" cx="64.4" cy="233.3" r="5.2"/>
<circle class="st3" cx="64.4" cy="58.3" r="5.2"/>
<circle class="st4" cx="95.4" cy="175" r="5.2"/>
<circle class="st1" cx="131.4" cy="116.6" r="5.2"/>
<circle class="st2" cx="71.5" cy="233.3" r="5.2"/>
<circle class="st3" cx="75" cy="58.3" r="5.2"/>
<circle class="st4" cx="82" cy="175" r="5.2"/>
<circle class="st1" cx="101.9" cy="116.6" r="5.2"/>
<circle class="st2" cx="75.1" cy="233.3" r="5.2"/>
<circle class="st3" cx="69.8" cy="58.3" r="5.2"/>
<circle class="st4" cx="80.5" cy="175" r="5.2"/>
<circle class="st1" cx="115.2" cy="116.6" r="5.2"/>
<circle class="st2" cx="64.4" cy="233.3" r="5.2"/>
<circle class="st3" cx="68.3" cy="58.3" r="5.2"/>
<circle class="st4" cx="95.7" cy="175" r="5.2"/>
<circle class="st1" cx="159.5" cy="116.6" r="5.2"/>
<circle class="st2" cx="72" cy="233.3" r="5.2"/>
<circle class="st3" cx="75.8" cy="58.3" r="5.2"/>
<circle class="st4" cx="129.1" cy="175" r="5.2"/>
<circle class="st1" cx="173.9" cy="116.6" r="5.2"/>
<circle class="st2" cx="64.4" cy="233.3" r="5.2"/>
<circle class="st3" cx="68.8" cy="58.3" r="5.2"/>
<circle class="st4" cx="112.6" cy="175" r="5.2"/>
<rect class="st0" width="300" height="300"/>
<rect x="76.4" y="282.7" class="st0" width="120.5" height="13"/>
<rect x="232.6" y="81.4" class="st5" width="17.3" height="17.3"/>
<rect x="232.6" y="98.7" class="st5" width="17.3" height="17.3"/>
<rect x="232.6" y="116" class="st5" width="17.3" height="17.3"/>
<rect x="227.1" y="149.7" class="st5" width="38.6" height="44"/>
<rect x="232.6" y="171" class="st5" width="17.3" height="17.3"/>
<text transform="matrix(1 0 0 1 8 63.6998)" class="st6 st7 st8">sad</text>
<text transform="matrix(1 0 0 1 8.9355 119.9799)" class="st9 st7 st8">positivity</text>
<text transform="matrix(1 0 0 1 10.3215 179.6201)" class="st10 st7 st8">joy</text>
<text transform="matrix(1 0 0 1 10.8875 238.4699)" class="st11 st7 st8">anger</text>
<line class="st5" x1="104.6" y1="53.1" x2="104.6" y2="44"/>
<line class="st12" x1="106.1" y1="52.6" x2="106.1" y2="43.4"/>
<line class="st13" x1="208.9" y1="110.7" x2="208.9" y2="101.6"/>
<line class="st14" x1="208.7" y1="169.5" x2="208.7" y2="160.4"/>
<line class="st15" x1="109.1" y1="228.1" x2="109.1" y2="218.9"/>
<text transform="matrix(1 0 0 1 193 96)" class="st16 st17 st8">Latvia</text>
<text transform="matrix(1 0 0 1 193.9121 156.252)" class="st18 st17 st8">Latvia</text>
<text transform="matrix(1 0 0 1 87 215)" class="st19 st17 st8">Palestine</text>
<text transform="matrix(1 0 0 1 96.95 40)" class="st20 st17 st8">Italy</text>
<text transform="matrix(1 0 0 1 57.2 259.126)" class="st17 st8">SCORE OF NATIONAL ANTHEM</text>
</svg>
