<?xml version="1.0" encoding="utf-8"?>
<!-- Generator: Adobe Illustrator 27.2.0, SVG Export Plug-In . SVG Version: 6.00 Build 0)  -->
<svg version="1.1" id="Layer_1" xmlns="http://www.w3.org/2000/svg" xmlns:xlink="http://www.w3.org/1999/xlink" x="0px" y="0px"
	 viewBox="0 0 900 300" style="enable-background:new 0 0 900 300;" xml:space="preserve">
<style type="text/css">
	.st0{fill:none;}
	
		.st1{fill:#00BFC4;fill-opacity:0.55;stroke:#00BFC4;stroke-width:0.71;stroke-linecap:round;stroke-linejoin:round;stroke-miterlimit:10;stroke-opacity:0.55;}
	
		.st2{fill:#F8766D;fill-opacity:0.55;stroke:#F8766D;stroke-width:0.71;stroke-linecap:round;stroke-linejoin:round;stroke-miterlimit:10;stroke-opacity:0.55;}
	
		.st3{fill:#C77CFF;fill-opacity:0.55;stroke:#C77CFF;stroke-width:0.71;stroke-linecap:round;stroke-linejoin:round;stroke-miterlimit:10;stroke-opacity:0.55;}
	
		.st4{fill:#7CAE00;fill-opacity:0.55;stroke:#7CAE00;stroke-width:0.71;stroke-linecap:round;stroke-linejoin:round;stroke-miterlimit:10;stroke-opacity:0.55;}
	.st5{fill:#4D4D4D;}
	.st6{font-family:'ArialMT';}
	.st7{font-size:8.8px;}
	.st8{fill:#FFFFFF;}
	.st9{fill:#CC66FF;}
	.st10{font-family:'Arial-BoldMT';}
	.st11{font-size:14px;}
	.st12{fill:#3FBBCC;}
	.st13{fill:#566A0B;}
	.st14{fill:#FF3A45;}
	.st15{font-size:12px;}
	.st16{fill:none;stroke:#7CAE00;stroke-width:2;stroke-miterlimit:10;}
	.st17{fill:#7CAE00;}
	.st18{fill:none;stroke:#C77CFF;stroke-width:2;stroke-miterlimit:10;}
	.st19{fill:#C77CFF;}
	.st20{fill:none;stroke:#00BFC4;stroke-width:2;stroke-miterlimit:10;}
	.st21{fill:#00BFC4;}
	.st22{fill:none;stroke:#F8766D;stroke-width:2;stroke-miterlimit:10;}
	.st23{fill:#F8766D;}
</style>
<rect class="st0" width="900" height="300"/>
<rect x="57.2" y="23.3" class="st0" width="758.9" height="244.9"/>
<circle class="st1" cx="362.7" cy="116.6" r="5.2"/>
<circle class="st2" cx="141" cy="233.3" r="5.2"/>
<circle class="st3" cx="116.3" cy="58.3" r="5.2"/>
<circle class="st4" cx="214.9" cy="175" r="5.2"/>
<circle class="st1" cx="551.7" cy="116.6" r="5.2"/>
<circle class="st2" cx="91.7" cy="233.3" r="5.2"/>
<circle class="st3" cx="137.7" cy="58.3" r="5.2"/>
<circle class="st4" cx="275.7" cy="175" r="5.2"/>
<circle class="st1" cx="395.3" cy="116.6" r="5.2"/>
<circle class="st2" cx="133.1" cy="233.3" r="5.2"/>
<circle class="st3" cx="146.9" cy="58.3" r="5.2"/>
<circle class="st4" cx="215.9" cy="175" r="5.2"/>
<circle class="st1" cx="449.9" cy="116.6" r="5.2"/>
<circle class="st2" cx="118.2" cy="233.3" r="5.2"/>
<circle class="st3" cx="131.5" cy="58.3" r="5.2"/>
<circle class="st4" cx="304" cy="175" r="5.2"/>
<circle class="st1" cx="470" cy="116.6" r="5.2"/>
<circle class="st2" cx="91.7" cy="233.3" r="5.2"/>
<circle class="st3" cx="158.5" cy="58.3" r="5.2"/>
<circle class="st4" cx="225.2" cy="175" r="5.2"/>
<circle class="st1" cx="459.7" cy="116.6" r="5.2"/>
<circle class="st2" cx="91.7" cy="233.3" r="5.2"/>
<circle class="st3" cx="91.7" cy="58.3" r="5.2"/>
<circle class="st4" cx="321.7" cy="175" r="5.2"/>
<circle class="st1" cx="347.4" cy="116.6" r="5.2"/>
<circle class="st2" cx="121.4" cy="233.3" r="5.2"/>
<circle class="st3" cx="210.6" cy="58.3" r="5.2"/>
<circle class="st4" cx="276.1" cy="175" r="5.2"/>
<circle class="st1" cx="393.5" cy="116.6" r="5.2"/>
<circle class="st2" cx="91.7" cy="233.3" r="5.2"/>
<circle class="st3" cx="177.9" cy="58.3" r="5.2"/>
<circle class="st4" cx="221.1" cy="175" r="5.2"/>
<circle class="st1" cx="505.6" cy="116.6" r="5.2"/>
<circle class="st2" cx="91.7" cy="233.3" r="5.2"/>
<circle class="st3" cx="91.7" cy="58.3" r="5.2"/>
<circle class="st4" cx="312.5" cy="175" r="5.2"/>
<circle class="st1" cx="475.9" cy="116.6" r="5.2"/>
<circle class="st2" cx="154.4" cy="233.3" r="5.2"/>
<circle class="st3" cx="170.1" cy="58.3" r="5.2"/>
<circle class="st4" cx="358.3" cy="175" r="5.2"/>
<circle class="st1" cx="393.5" cy="116.6" r="5.2"/>
<circle class="st2" cx="91.7" cy="233.3" r="5.2"/>
<circle class="st3" cx="91.7" cy="58.3" r="5.2"/>
<circle class="st4" cx="221.1" cy="175" r="5.2"/>
<circle class="st1" cx="451.7" cy="116.6" r="5.2"/>
<circle class="st2" cx="91.7" cy="233.3" r="5.2"/>
<circle class="st3" cx="121.7" cy="58.3" r="5.2"/>
<circle class="st4" cx="301.7" cy="175" r="5.2"/>
<circle class="st1" cx="357.6" cy="116.6" r="5.2"/>
<circle class="st2" cx="134.8" cy="233.3" r="5.2"/>
<circle class="st3" cx="163.6" cy="58.3" r="5.2"/>
<circle class="st4" cx="249.8" cy="175" r="5.2"/>
<circle class="st1" cx="501.3" cy="116.6" r="5.2"/>
<circle class="st2" cx="91.7" cy="233.3" r="5.2"/>
<circle class="st3" cx="113.3" cy="58.3" r="5.2"/>
<circle class="st4" cx="307.3" cy="175" r="5.2"/>
<circle class="st1" cx="372.8" cy="116.6" r="5.2"/>
<circle class="st2" cx="91.7" cy="233.3" r="5.2"/>
<circle class="st3" cx="91.7" cy="58.3" r="5.2"/>
<circle class="st4" cx="245" cy="175" r="5.2"/>
<circle class="st1" cx="405.3" cy="116.6" r="5.2"/>
<circle class="st2" cx="107.4" cy="233.3" r="5.2"/>
<circle class="st3" cx="138.7" cy="58.3" r="5.2"/>
<circle class="st4" cx="279.9" cy="175" r="5.2"/>
<circle class="st1" cx="461.7" cy="116.6" r="5.2"/>
<circle class="st2" cx="91.7" cy="233.3" r="5.2"/>
<circle class="st3" cx="101.7" cy="58.3" r="5.2"/>
<circle class="st4" cx="211.7" cy="175" r="5.2"/>
<circle class="st1" cx="536.8" cy="116.6" r="5.2"/>
<circle class="st2" cx="113.9" cy="233.3" r="5.2"/>
<circle class="st3" cx="247.5" cy="58.3" r="5.2"/>
<circle class="st4" cx="336.5" cy="175" r="5.2"/>
<circle class="st1" cx="284.9" cy="116.6" r="5.2"/>
<circle class="st2" cx="119.3" cy="233.3" r="5.2"/>
<circle class="st3" cx="174.5" cy="58.3" r="5.2"/>
<circle class="st4" cx="174.5" cy="175" r="5.2"/>
<circle class="st1" cx="451.7" cy="116.6" r="5.2"/>
<circle class="st2" cx="91.7" cy="233.3" r="5.2"/>
<circle class="st3" cx="121.7" cy="58.3" r="5.2"/>
<circle class="st4" cx="301.7" cy="175" r="5.2"/>
<circle class="st1" cx="436.7" cy="116.6" r="5.2"/>
<circle class="st2" cx="118.2" cy="233.3" r="5.2"/>
<circle class="st3" cx="144.8" cy="58.3" r="5.2"/>
<circle class="st4" cx="197.8" cy="175" r="5.2"/>
<circle class="st1" cx="530.7" cy="116.6" r="5.2"/>
<circle class="st2" cx="123.1" cy="233.3" r="5.2"/>
<circle class="st3" cx="123.1" cy="58.3" r="5.2"/>
<circle class="st4" cx="405.3" cy="175" r="5.2"/>
<circle class="st1" cx="500.5" cy="116.6" r="5.2"/>
<circle class="st2" cx="91.7" cy="233.3" r="5.2"/>
<circle class="st3" cx="117.2" cy="58.3" r="5.2"/>
<circle class="st4" cx="372.8" cy="175" r="5.2"/>
<circle class="st1" cx="591.9" cy="116.6" r="5.2"/>
<circle class="st2" cx="91.7" cy="233.3" r="5.2"/>
<circle class="st3" cx="108.9" cy="58.3" r="5.2"/>
<circle class="st4" cx="436.7" cy="175" r="5.2"/>
<circle class="st1" cx="412.6" cy="116.6" r="5.2"/>
<circle class="st2" cx="99.7" cy="233.3" r="5.2"/>
<circle class="st3" cx="115.8" cy="58.3" r="5.2"/>
<circle class="st4" cx="244.1" cy="175" r="5.2"/>
<circle class="st1" cx="287.7" cy="116.6" r="5.2"/>
<circle class="st2" cx="185.8" cy="233.3" r="5.2"/>
<circle class="st3" cx="146.6" cy="58.3" r="5.2"/>
<circle class="st4" cx="201.5" cy="175" r="5.2"/>
<circle class="st1" cx="593.5" cy="116.6" r="5.2"/>
<circle class="st2" cx="91.7" cy="233.3" r="5.2"/>
<circle class="st3" cx="91.7" cy="58.3" r="5.2"/>
<circle class="st4" cx="342.6" cy="175" r="5.2"/>
<circle class="st1" cx="505.6" cy="116.6" r="5.2"/>
<circle class="st2" cx="91.7" cy="233.3" r="5.2"/>
<circle class="st3" cx="91.7" cy="58.3" r="5.2"/>
<circle class="st4" cx="505.6" cy="175" r="5.2"/>
<circle class="st1" cx="371" cy="116.6" r="5.2"/>
<circle class="st2" cx="124.6" cy="233.3" r="5.2"/>
<circle class="st3" cx="91.7" cy="58.3" r="5.2"/>
<circle class="st4" cx="239.5" cy="175" r="5.2"/>
<circle class="st1" cx="428.6" cy="116.6" r="5.2"/>
<circle class="st2" cx="107.7" cy="233.3" r="5.2"/>
<circle class="st3" cx="123.8" cy="58.3" r="5.2"/>
<ellipse transform="matrix(0.1602 -0.9871 0.9871 0.1602 39.0508 395.8187)" class="st4" cx="252.1" cy="175" rx="5.2" ry="5.2"/>
<circle class="st1" cx="475" cy="116.6" r="5.2"/>
<circle class="st2" cx="91.7" cy="233.3" r="5.2"/>
<circle class="st3" cx="91.7" cy="58.3" r="5.2"/>
<circle class="st4" cx="245" cy="175" r="5.2"/>
<circle class="st1" cx="264.2" cy="116.6" r="5.2"/>
<circle class="st2" cx="91.7" cy="233.3" r="5.2"/>
<circle class="st3" cx="91.7" cy="58.3" r="5.2"/>
<circle class="st4" cx="221.1" cy="175" r="5.2"/>
<circle class="st1" cx="563.8" cy="116.6" r="5.2"/>
<circle class="st2" cx="91.7" cy="233.3" r="5.2"/>
<circle class="st3" cx="91.7" cy="58.3" r="5.2"/>
<circle class="st4" cx="382.2" cy="175" r="5.2"/>
<circle class="st1" cx="305.6" cy="116.6" r="5.2"/>
<circle class="st2" cx="181.4" cy="233.3" r="5.2"/>
<circle class="st3" cx="146.9" cy="58.3" r="5.2"/>
<circle class="st4" cx="202.1" cy="175" r="5.2"/>
<circle class="st1" cx="390.7" cy="116.6" r="5.2"/>
<circle class="st2" cx="91.7" cy="233.3" r="5.2"/>
<circle class="st3" cx="137.7" cy="58.3" r="5.2"/>
<circle class="st4" cx="275.7" cy="175" r="5.2"/>
<circle class="st1" cx="479.8" cy="116.6" r="5.2"/>
<circle class="st2" cx="156.4" cy="233.3" r="5.2"/>
<circle class="st3" cx="156.4" cy="58.3" r="5.2"/>
<circle class="st4" cx="285.7" cy="175" r="5.2"/>
<circle class="st1" cx="551.7" cy="116.6" r="5.2"/>
<circle class="st2" cx="91.7" cy="233.3" r="5.2"/>
<circle class="st3" cx="149.2" cy="58.3" r="5.2"/>
<circle class="st4" cx="245" cy="175" r="5.2"/>
<circle class="st1" cx="301.1" cy="116.6" r="5.2"/>
<circle class="st2" cx="116.3" cy="233.3" r="5.2"/>
<circle class="st3" cx="116.3" cy="58.3" r="5.2"/>
<circle class="st4" cx="190.3" cy="175" r="5.2"/>
<circle class="st1" cx="294.3" cy="116.6" r="5.2"/>
<circle class="st2" cx="146.4" cy="233.3" r="5.2"/>
<circle class="st3" cx="179.3" cy="58.3" r="5.2"/>
<circle class="st4" cx="195.7" cy="175" r="5.2"/>
<circle class="st1" cx="273.6" cy="116.6" r="5.2"/>
<circle class="st2" cx="182.7" cy="233.3" r="5.2"/>
<circle class="st3" cx="220.6" cy="58.3" r="5.2"/>
<circle class="st4" cx="182.7" cy="175" r="5.2"/>
<circle class="st1" cx="334.7" cy="116.6" r="5.2"/>
<circle class="st2" cx="99.5" cy="233.3" r="5.2"/>
<circle class="st3" cx="115.2" cy="58.3" r="5.2"/>
<circle class="st4" cx="232.8" cy="175" r="5.2"/>
<circle class="st1" cx="454.8" cy="116.6" r="5.2"/>
<circle class="st2" cx="91.7" cy="233.3" r="5.2"/>
<circle class="st3" cx="200.6" cy="58.3" r="5.2"/>
<circle class="st4" cx="418.5" cy="175" r="5.2"/>
<circle class="st1" cx="495.2" cy="116.6" r="5.2"/>
<circle class="st2" cx="117.7" cy="233.3" r="5.2"/>
<circle class="st3" cx="91.7" cy="58.3" r="5.2"/>
<circle class="st4" cx="234.9" cy="175" r="5.2"/>
<circle class="st1" cx="350.4" cy="116.6" r="5.2"/>
<circle class="st2" cx="91.7" cy="233.3" r="5.2"/>
<circle class="st3" cx="91.7" cy="58.3" r="5.2"/>
<circle class="st4" cx="264.2" cy="175" r="5.2"/>
<circle class="st1" cx="389.6" cy="116.6" r="5.2"/>
<circle class="st2" cx="170.1" cy="233.3" r="5.2"/>
<circle class="st3" cx="201.5" cy="58.3" r="5.2"/>
<circle class="st4" cx="311.2" cy="175" r="5.2"/>
<circle class="st1" cx="304" cy="116.6" r="5.2"/>
<circle class="st2" cx="259.8" cy="233.3" r="5.2"/>
<circle class="st3" cx="224.4" cy="58.3" r="5.2"/>
<circle class="st4" cx="189" cy="175" r="5.2"/>
<circle class="st1" cx="321.7" cy="116.6" r="5.2"/>
<circle class="st2" cx="91.7" cy="233.3" r="5.2"/>
<circle class="st3" cx="149.2" cy="58.3" r="5.2"/>
<circle class="st4" cx="206.7" cy="175" r="5.2"/>
<circle class="st1" cx="283.3" cy="116.6" r="5.2"/>
<circle class="st2" cx="130" cy="233.3" r="5.2"/>
<circle class="st3" cx="283.3" cy="58.3" r="5.2"/>
<circle class="st4" cx="168.4" cy="175" r="5.2"/>
<circle class="st1" cx="609.1" cy="116.6" r="5.2"/>
<circle class="st2" cx="91.7" cy="233.3" r="5.2"/>
<circle class="st3" cx="91.7" cy="58.3" r="5.2"/>
<circle class="st4" cx="387.4" cy="175" r="5.2"/>
<circle class="st1" cx="589.1" cy="116.6" r="5.2"/>
<circle class="st2" cx="123.8" cy="233.3" r="5.2"/>
<circle class="st3" cx="123.8" cy="58.3" r="5.2"/>
<circle class="st4" cx="332.4" cy="175" r="5.2"/>
<circle class="st1" cx="245" cy="116.6" r="5.2"/>
<circle class="st2" cx="91.7" cy="233.3" r="5.2"/>
<circle class="st3" cx="168.4" cy="58.3" r="5.2"/>
<circle class="st4" cx="168.4" cy="175" r="5.2"/>
<circle class="st1" cx="459.7" cy="116.6" r="5.2"/>
<circle class="st2" cx="137.7" cy="233.3" r="5.2"/>
<circle class="st3" cx="114.7" cy="58.3" r="5.2"/>
<circle class="st4" cx="183.7" cy="175" r="5.2"/>
<circle class="st1" cx="348" cy="116.6" r="5.2"/>
<circle class="st2" cx="91.7" cy="233.3" r="5.2"/>
<circle class="st3" cx="91.7" cy="58.3" r="5.2"/>
<circle class="st4" cx="229.7" cy="175" r="5.2"/>
<circle class="st1" cx="447.1" cy="116.6" r="5.2"/>
<circle class="st2" cx="91.7" cy="233.3" r="5.2"/>
<circle class="st3" cx="91.7" cy="58.3" r="5.2"/>
<circle class="st4" cx="259" cy="175" r="5.2"/>
<circle class="st1" cx="551.7" cy="116.6" r="5.2"/>
<circle class="st2" cx="91.7" cy="233.3" r="5.2"/>
<circle class="st3" cx="91.7" cy="58.3" r="5.2"/>
<circle class="st4" cx="445.5" cy="175" r="5.2"/>
<circle class="st1" cx="413.7" cy="116.6" r="5.2"/>
<circle class="st2" cx="91.7" cy="233.3" r="5.2"/>
<circle class="st3" cx="91.7" cy="58.3" r="5.2"/>
<circle class="st4" cx="252.7" cy="175" r="5.2"/>
<circle class="st1" cx="398.3" cy="116.6" r="5.2"/>
<circle class="st2" cx="117.2" cy="233.3" r="5.2"/>
<circle class="st3" cx="117.2" cy="58.3" r="5.2"/>
<circle class="st4" cx="168.4" cy="175" r="5.2"/>
<circle class="st1" cx="781.6" cy="116.6" r="5.2"/>
<circle class="st2" cx="91.7" cy="233.3" r="5.2"/>
<circle class="st3" cx="177.9" cy="58.3" r="5.2"/>
<circle class="st4" cx="781.6" cy="175" r="5.2"/>
<circle class="st1" cx="342.6" cy="116.6" r="5.2"/>
<circle class="st2" cx="107.4" cy="233.3" r="5.2"/>
<circle class="st3" cx="91.7" cy="58.3" r="5.2"/>
<circle class="st4" cx="248.5" cy="175" r="5.2"/>
<circle class="st1" cx="569.3" cy="116.6" r="5.2"/>
<circle class="st2" cx="144.8" cy="233.3" r="5.2"/>
<circle class="st3" cx="197.8" cy="58.3" r="5.2"/>
<circle class="st4" cx="250.9" cy="175" r="5.2"/>
<circle class="st1" cx="584.5" cy="116.6" r="5.2"/>
<circle class="st2" cx="141" cy="233.3" r="5.2"/>
<circle class="st3" cx="91.7" cy="58.3" r="5.2"/>
<circle class="st4" cx="350.4" cy="175" r="5.2"/>
<circle class="st1" cx="400.4" cy="116.6" r="5.2"/>
<circle class="st2" cx="182.5" cy="233.3" r="5.2"/>
<circle class="st3" cx="200.6" cy="58.3" r="5.2"/>
<circle class="st4" cx="309.6" cy="175" r="5.2"/>
<circle class="st1" cx="387.4" cy="116.6" r="5.2"/>
<circle class="st2" cx="91.7" cy="233.3" r="5.2"/>
<circle class="st3" cx="91.7" cy="58.3" r="5.2"/>
<circle class="st4" cx="190.3" cy="175" r="5.2"/>
<circle class="st1" cx="436.7" cy="116.6" r="5.2"/>
<circle class="st2" cx="120.4" cy="233.3" r="5.2"/>
<circle class="st3" cx="120.4" cy="58.3" r="5.2"/>
<circle class="st4" cx="206.7" cy="175" r="5.2"/>
<circle class="st1" cx="353.9" cy="116.6" r="5.2"/>
<circle class="st2" cx="105.5" cy="233.3" r="5.2"/>
<circle class="st3" cx="160.7" cy="58.3" r="5.2"/>
<circle class="st4" cx="243.5" cy="175" r="5.2"/>
<circle class="st1" cx="294.6" cy="116.6" r="5.2"/>
<circle class="st2" cx="213.4" cy="233.3" r="5.2"/>
<circle class="st3" cx="91.7" cy="58.3" r="5.2"/>
<circle class="st4" cx="91.7" cy="175" r="5.2"/>
<circle class="st1" cx="453.1" cy="116.6" r="5.2"/>
<circle class="st2" cx="91.7" cy="233.3" r="5.2"/>
<circle class="st3" cx="124.6" cy="58.3" r="5.2"/>
<circle class="st4" cx="288.8" cy="175" r="5.2"/>
<circle class="st1" cx="480.9" cy="116.6" r="5.2"/>
<circle class="st2" cx="144.8" cy="233.3" r="5.2"/>
<circle class="st3" cx="127.1" cy="58.3" r="5.2"/>
<circle class="st4" cx="268.6" cy="175" r="5.2"/>
<circle class="st1" cx="619.3" cy="116.6" r="5.2"/>
<circle class="st2" cx="91.7" cy="233.3" r="5.2"/>
<circle class="st3" cx="91.7" cy="58.3" r="5.2"/>
<circle class="st4" cx="416.4" cy="175" r="5.2"/>
<circle class="st1" cx="571.6" cy="116.6" r="5.2"/>
<circle class="st2" cx="106.7" cy="233.3" r="5.2"/>
<circle class="st3" cx="106.7" cy="58.3" r="5.2"/>
<circle class="st4" cx="481.6" cy="175" r="5.2"/>
<circle class="st1" cx="475" cy="116.6" r="5.2"/>
<circle class="st2" cx="120.4" cy="233.3" r="5.2"/>
<circle class="st3" cx="101.3" cy="58.3" r="5.2"/>
<circle class="st4" cx="245" cy="175" r="5.2"/>
<circle class="st1" cx="468" cy="116.6" r="5.2"/>
<circle class="st2" cx="91.7" cy="233.3" r="5.2"/>
<circle class="st3" cx="123.1" cy="58.3" r="5.2"/>
<circle class="st4" cx="248.5" cy="175" r="5.2"/>
<circle class="st1" cx="502.4" cy="116.6" r="5.2"/>
<circle class="st2" cx="108.1" cy="233.3" r="5.2"/>
<circle class="st3" cx="108.1" cy="58.3" r="5.2"/>
<circle class="st4" cx="371" cy="175" r="5.2"/>
<circle class="st1" cx="505.6" cy="116.6" r="5.2"/>
<circle class="st2" cx="91.7" cy="233.3" r="5.2"/>
<circle class="st3" cx="91.7" cy="58.3" r="5.2"/>
<circle class="st4" cx="459.7" cy="175" r="5.2"/>
<circle class="st1" cx="222.2" cy="116.6" r="5.2"/>
<circle class="st2" cx="184.9" cy="233.3" r="5.2"/>
<circle class="st3" cx="157" cy="58.3" r="5.2"/>
<circle class="st4" cx="147.6" cy="175" r="5.2"/>
<circle class="st1" cx="367.7" cy="116.6" r="5.2"/>
<circle class="st2" cx="91.7" cy="233.3" r="5.2"/>
<circle class="st3" cx="91.7" cy="58.3" r="5.2"/>
<circle class="st4" cx="249.4" cy="175" r="5.2"/>
<circle class="st1" cx="407.9" cy="116.6" r="5.2"/>
<circle class="st2" cx="177.9" cy="233.3" r="5.2"/>
<circle class="st3" cx="235.4" cy="58.3" r="5.2"/>
<circle class="st4" cx="321.7" cy="175" r="5.2"/>
<circle class="st1" cx="298.7" cy="116.6" r="5.2"/>
<circle class="st2" cx="91.7" cy="233.3" r="5.2"/>
<circle class="st3" cx="91.7" cy="58.3" r="5.2"/>
<circle class="st4" cx="183.7" cy="175" r="5.2"/>
<circle class="st1" cx="423.9" cy="116.6" r="5.2"/>
<circle class="st2" cx="193.9" cy="233.3" r="5.2"/>
<circle class="st3" cx="117.2" cy="58.3" r="5.2"/>
<circle class="st4" cx="219.5" cy="175" r="5.2"/>
<circle class="st1" cx="401" cy="116.6" r="5.2"/>
<circle class="st2" cx="91.7" cy="233.3" r="5.2"/>
<circle class="st3" cx="91.7" cy="58.3" r="5.2"/>
<circle class="st4" cx="234.4" cy="175" r="5.2"/>
<circle class="st1" cx="527.4" cy="116.6" r="5.2"/>
<circle class="st2" cx="128" cy="233.3" r="5.2"/>
<circle class="st3" cx="91.7" cy="58.3" r="5.2"/>
<circle class="st4" cx="345.9" cy="175" r="5.2"/>
<circle class="st1" cx="345.9" cy="116.6" r="5.2"/>
<circle class="st2" cx="91.7" cy="233.3" r="5.2"/>
<circle class="st3" cx="91.7" cy="58.3" r="5.2"/>
<circle class="st4" cx="164.3" cy="175" r="5.2"/>
<circle class="st1" cx="502.5" cy="116.6" r="5.2"/>
<circle class="st2" cx="130.5" cy="233.3" r="5.2"/>
<circle class="st3" cx="107.2" cy="58.3" r="5.2"/>
<circle class="st4" cx="262.2" cy="175" r="5.2"/>
<circle class="st1" cx="457" cy="116.6" r="5.2"/>
<circle class="st2" cx="132.3" cy="233.3" r="5.2"/>
<circle class="st3" cx="91.7" cy="58.3" r="5.2"/>
<circle class="st4" cx="172.9" cy="175" r="5.2"/>
<circle class="st1" cx="344.1" cy="116.6" r="5.2"/>
<circle class="st2" cx="142.2" cy="233.3" r="5.2"/>
<circle class="st3" cx="142.2" cy="58.3" r="5.2"/>
<circle class="st4" cx="159" cy="175" r="5.2"/>
<circle class="st1" cx="479.8" cy="116.6" r="5.2"/>
<circle class="st2" cx="113.3" cy="233.3" r="5.2"/>
<circle class="st3" cx="91.7" cy="58.3" r="5.2"/>
<circle class="st4" cx="307.3" cy="175" r="5.2"/>
<circle class="st1" cx="436.7" cy="116.6" r="5.2"/>
<circle class="st2" cx="182.5" cy="233.3" r="5.2"/>
<circle class="st3" cx="128" cy="58.3" r="5.2"/>
<circle class="st4" cx="273.3" cy="175" r="5.2"/>
<circle class="st1" cx="563.8" cy="116.6" r="5.2"/>
<circle class="st2" cx="91.7" cy="233.3" r="5.2"/>
<circle class="st3" cx="91.7" cy="58.3" r="5.2"/>
<circle class="st4" cx="236.9" cy="175" r="5.2"/>
<circle class="st1" cx="463.2" cy="116.6" r="5.2"/>
<circle class="st2" cx="109.4" cy="233.3" r="5.2"/>
<circle class="st3" cx="91.7" cy="58.3" r="5.2"/>
<circle class="st4" cx="357" cy="175" r="5.2"/>
<circle class="st1" cx="403.8" cy="116.6" r="5.2"/>
<circle class="st2" cx="305.2" cy="233.3" r="5.2"/>
<circle class="st3" cx="206.7" cy="58.3" r="5.2"/>
<circle class="st4" cx="91.7" cy="176.1" r="5.2"/>
<circle class="st1" cx="354.5" cy="116.6" r="5.2"/>
<circle class="st2" cx="124.6" cy="233.3" r="5.2"/>
<circle class="st3" cx="124.6" cy="58.3" r="5.2"/>
<circle class="st4" cx="223.1" cy="175" r="5.2"/>
<circle class="st1" cx="407.9" cy="116.6" r="5.2"/>
<circle class="st2" cx="149.2" cy="233.3" r="5.2"/>
<circle class="st3" cx="120.4" cy="58.3" r="5.2"/>
<circle class="st4" cx="264.2" cy="175" r="5.2"/>
<circle class="st1" cx="317.1" cy="116.6" r="5.2"/>
<circle class="st2" cx="166.8" cy="233.3" r="5.2"/>
<circle class="st3" cx="180.5" cy="58.3" r="5.2"/>
<circle class="st4" cx="228.3" cy="175" r="5.2"/>
<circle class="st1" cx="257.5" cy="116.6" r="5.2"/>
<circle class="st2" cx="188" cy="233.3" r="5.2"/>
<circle class="st3" cx="161.2" cy="58.3" r="5.2"/>
<circle class="st4" cx="209.4" cy="175" r="5.2"/>
<circle class="st1" cx="357" cy="116.6" r="5.2"/>
<circle class="st2" cx="171.3" cy="233.3" r="5.2"/>
<circle class="st3" cx="197.8" cy="58.3" r="5.2"/>
<circle class="st4" cx="171.3" cy="175" r="5.2"/>
<circle class="st1" cx="405.3" cy="116.6" r="5.2"/>
<circle class="st2" cx="112.6" cy="233.3" r="5.2"/>
<circle class="st3" cx="112.6" cy="58.3" r="5.2"/>
<circle class="st4" cx="175.3" cy="175" r="5.2"/>
<circle class="st1" cx="443.7" cy="116.6" r="5.2"/>
<circle class="st2" cx="105.8" cy="233.3" r="5.2"/>
<circle class="st3" cx="119.9" cy="58.3" r="5.2"/>
<circle class="st4" cx="288.8" cy="175" r="5.2"/>
<circle class="st1" cx="264.2" cy="116.6" r="5.2"/>
<circle class="st2" cx="91.7" cy="233.3" r="5.2"/>
<circle class="st3" cx="91.7" cy="58.3" r="5.2"/>
<circle class="st4" cx="206.7" cy="175" r="5.2"/>
<circle class="st1" cx="373.9" cy="116.6" r="5.2"/>
<circle class="st2" cx="185.8" cy="233.3" r="5.2"/>
<circle class="st3" cx="123.1" cy="58.3" r="5.2"/>
<circle class="st4" cx="279.9" cy="175" r="5.2"/>
<circle class="st1" cx="338.1" cy="116.6" r="5.2"/>
<circle class="st2" cx="111.4" cy="233.3" r="5.2"/>
<circle class="st3" cx="121.3" cy="58.3" r="5.2"/>
<circle class="st4" cx="200.1" cy="175" r="5.2"/>
<circle class="st1" cx="338.1" cy="116.6" r="5.2"/>
<circle class="st2" cx="239.5" cy="233.3" r="5.2"/>
<circle class="st3" cx="239.5" cy="58.3" r="5.2"/>
<circle class="st4" cx="239.5" cy="175" r="5.2"/>
<circle class="st1" cx="360" cy="116.6" r="5.2"/>
<circle class="st2" cx="110.9" cy="233.3" r="5.2"/>
<circle class="st3" cx="130" cy="58.3" r="5.2"/>
<circle class="st4" cx="225.9" cy="175" r="5.2"/>
<circle class="st1" cx="420.7" cy="116.6" r="5.2"/>
<circle class="st2" cx="176.6" cy="233.3" r="5.2"/>
<circle class="st3" cx="176.6" cy="58.3" r="5.2"/>
<circle class="st4" cx="261.5" cy="175" r="5.2"/>
<circle class="st1" cx="600.1" cy="116.6" r="5.2"/>
<circle class="st2" cx="128" cy="233.3" r="5.2"/>
<circle class="st3" cx="128" cy="58.3" r="5.2"/>
<circle class="st4" cx="345.9" cy="175" r="5.2"/>
<circle class="st1" cx="328.9" cy="116.6" r="5.2"/>
<circle class="st2" cx="91.7" cy="233.3" r="5.2"/>
<circle class="st3" cx="113.3" cy="58.3" r="5.2"/>
<circle class="st4" cx="285.7" cy="175" r="5.2"/>
<circle class="st1" cx="342.6" cy="116.6" r="5.2"/>
<circle class="st2" cx="154.4" cy="233.3" r="5.2"/>
<circle class="st3" cx="170.1" cy="58.3" r="5.2"/>
<circle class="st4" cx="248.5" cy="175" r="5.2"/>
<circle class="st1" cx="296.3" cy="116.6" r="5.2"/>
<circle class="st2" cx="148.8" cy="233.3" r="5.2"/>
<circle class="st3" cx="158.3" cy="58.3" r="5.2"/>
<circle class="st4" cx="229.7" cy="175" r="5.2"/>
<circle class="st1" cx="329.6" cy="116.6" r="5.2"/>
<circle class="st2" cx="115.5" cy="233.3" r="5.2"/>
<circle class="st3" cx="139.3" cy="58.3" r="5.2"/>
<circle class="st4" cx="139.3" cy="175" r="5.2"/>
<circle class="st1" cx="494.1" cy="116.6" r="5.2"/>
<circle class="st2" cx="91.7" cy="233.3" r="5.2"/>
<circle class="st3" cx="91.7" cy="58.3" r="5.2"/>
<circle class="st4" cx="321.7" cy="175" r="5.2"/>
<circle class="st1" cx="410.1" cy="116.6" r="5.2"/>
<circle class="st2" cx="91.7" cy="233.3" r="5.2"/>
<circle class="st3" cx="91.7" cy="58.3" r="5.2"/>
<circle class="st4" cx="357" cy="175" r="5.2"/>
<circle class="st1" cx="321.7" cy="116.6" r="5.2"/>
<circle class="st2" cx="117.2" cy="233.3" r="5.2"/>
<circle class="st3" cx="142.8" cy="58.3" r="5.2"/>
<circle class="st4" cx="142.8" cy="175" r="5.2"/>
<circle class="st1" cx="277.5" cy="116.6" r="5.2"/>
<circle class="st2" cx="180.1" cy="233.3" r="5.2"/>
<circle class="st3" cx="144.8" cy="58.3" r="5.2"/>
<circle class="st4" cx="215.5" cy="175" r="5.2"/>
<circle class="st1" cx="445.3" cy="116.6" r="5.2"/>
<circle class="st2" cx="212.4" cy="233.3" r="5.2"/>
<circle class="st3" cx="203.8" cy="58.3" r="5.2"/>
<circle class="st4" cx="428" cy="175" r="5.2"/>
<circle class="st1" cx="464.6" cy="116.6" r="5.2"/>
<circle class="st2" cx="91.7" cy="233.3" r="5.2"/>
<circle class="st3" cx="110.3" cy="58.3" r="5.2"/>
<circle class="st4" cx="278.2" cy="175" r="5.2"/>
<circle class="st1" cx="387.4" cy="116.6" r="5.2"/>
<circle class="st2" cx="91.7" cy="233.3" r="5.2"/>
<circle class="st3" cx="91.7" cy="58.9" r="5.2"/>
<circle class="st4" cx="239.5" cy="175" r="5.2"/>
<circle class="st1" cx="411.4" cy="116.6" r="5.2"/>
<circle class="st2" cx="125.3" cy="233.3" r="5.2"/>
<circle class="st3" cx="142.2" cy="58.3" r="5.2"/>
<circle class="st4" cx="175.8" cy="175" r="5.2"/>
<circle class="st1" cx="270.6" cy="116.6" r="5.2"/>
<circle class="st2" cx="142.8" cy="233.3" r="5.2"/>
<circle class="st3" cx="117.2" cy="58.3" r="5.2"/>
<circle class="st4" cx="168.4" cy="175" r="5.2"/>
<circle class="st1" cx="334.1" cy="116.6" r="5.2"/>
<circle class="st2" cx="91.7" cy="233.3" r="5.2"/>
<circle class="st3" cx="110.3" cy="58.3" r="5.2"/>
<circle class="st4" cx="240.9" cy="175" r="5.2"/>
<circle class="st1" cx="545.6" cy="116.6" r="5.2"/>
<circle class="st2" cx="128" cy="233.3" r="5.2"/>
<circle class="st3" cx="146.2" cy="58.3" r="5.2"/>
<circle class="st4" cx="400.4" cy="175" r="5.2"/>
<circle class="st1" cx="614.4" cy="116.6" r="5.2"/>
<circle class="st2" cx="91.7" cy="232.5" r="5.2"/>
<circle class="st3" cx="112.6" cy="58.3" r="5.2"/>
<circle class="st4" cx="321.7" cy="175" r="5.2"/>
<rect class="st0" width="900" height="300"/>
<rect x="83.1" y="261.9" class="st0" width="17.1" height="10.4"/>
<text transform="matrix(1 0 0 1 83.1362 269.5)" class="st5 st6 st7">0.00</text>
<rect x="255.6" y="261.9" class="st0" width="17.1" height="10.4"/>
<text transform="matrix(1 0 0 1 255.6162 269.5)" class="st5 st6 st7">0.25</text>
<rect x="428.1" y="261.9" class="st0" width="17.1" height="10.4"/>
<text transform="matrix(1 0 0 1 428.0967 269.5)" class="st5 st6 st7">0.50</text>
<rect x="600.6" y="261.9" class="st0" width="17.1" height="10.4"/>
<text transform="matrix(1 0 0 1 600.5762 269.5)" class="st5 st6 st7">0.75</text>
<rect x="773.1" y="261.9" class="st0" width="17.1" height="10.4"/>
<text transform="matrix(1 0 0 1 773.0566 269.5)" class="st5 st6 st7">1.00</text>
<rect x="832.6" y="64.1" class="st8" width="17.3" height="17.3"/>
<rect x="832.6" y="81.4" class="st8" width="17.3" height="17.3"/>
<rect x="832.6" y="98.7" class="st8" width="17.3" height="17.3"/>
<rect x="827.1" y="149.7" class="st8" width="38.6" height="44"/>
<rect x="832.6" y="171" class="st8" width="17.3" height="17.3"/>
<rect x="832.6" y="226" class="st8" width="17.3" height="17.3"/>
<text transform="matrix(1 0 0 1 49.3828 61.7742)" class="st9 st10 st11">sad</text>
<text transform="matrix(1 0 0 1 11.816 121.83)" class="st12 st10 st11">positivity</text>
<text transform="matrix(1 0 0 1 50.6587 178.9991)" class="st13 st10 st11">joy</text>
<text transform="matrix(1 0 0 1 33.8045 235.3994)" class="st14 st10 st11">anger</text>
<text transform="matrix(1 0 0 1 289.7099 284)" class="st10 st15">SCORE OF NATIONAL ANTHEM LYRICS FOR EACH EMOTION</text>
<g>
	<g>
		<path class="st16" d="M786,167.5c2.5-10.8-1-21.9-6.5-24.3c-4.7-2.1-10.6,2.4-13.4,11.2"/>
		<g>
			<polygon class="st17" points="784.2,164 786.1,167.1 789.2,165.2 788.6,167.3 785.5,169.2 783.7,166.1 			"/>
		</g>
	</g>
</g>
<g>
	<g>
		<path class="st18" d="M285.9,52.2c-3.8-10.9,2.2-22.3,11.3-25c7.8-2.2,17.3,2.1,21.6,10.9"/>
		<g>
			<polygon class="st19" points="287.3,48.5 285.8,51.8 282.5,50.3 283.3,52.3 286.6,53.8 288,50.5 			"/>
		</g>
	</g>
</g>
<path id="SVGID_x5F_1_x5F_" class="st0" d="M307.6,226.8c-5.1-11.4,1.2-23.8,10.7-26.6c7.8-2.2,17.3,2.1,21.6,10.9"/>
<text><textPath  xlink:href="#SVGID_x5F_1_x5F_" startOffset="86.3552%">
</textPath>
</text>
<g>
	<g>
		<path class="st20" d="M784.4,110.3c10.4-11.2,11.9-27.5,5.1-34.6c-5.7-6-16.9-5-26.1,3.6"/>
		<g>
			<polygon class="st21" points="784.5,106.4 784.6,110 788.2,109.8 786.8,111.4 783.2,111.5 783,107.9 			"/>
		</g>
	</g>
</g>
<text transform="matrix(1 0 0 1 317 51)" class="st19 st10 st11">Italy</text>
<text transform="matrix(1 0 0 1 727 93)" class="st21 st10 st11">Latvia</text>
<text transform="matrix(1 0 0 1 728 165)" class="st17 st10 st11">Latvia</text>
<g>
	<g>
		<path class="st22" d="M305.2,225.4c-3.6-9.5-0.1-19.9,6.3-22.7c5.6-2.4,13,0.9,16.9,8.5"/>
		<g>
			<polygon class="st23" points="306.4,221.7 305,225 301.7,223.7 302.5,225.6 305.8,227 307.2,223.7 			"/>
		</g>
	</g>
</g>
<text transform="matrix(1 0 0 1 326 226)" class="st23 st10 st11">Palestine</text>
<g>
	<g>
		<path class="st16" d="M91.6,167.8c-5.7-7.2-6.7-16.9-3-20.9c3.2-3.4,9.6-2.4,15,3.3"/>
		<g>
			<polygon class="st17" points="91.6,163.9 91.3,167.4 87.8,167.1 89.2,168.8 92.7,169.1 93,165.5 			"/>
		</g>
	</g>
</g>
<text transform="matrix(1 0 0 1 104.95 162)" class="st17 st10 st11">Macau</text>
<g>
	<g>
		<path class="st20" d="M222.4,107.9c3.3-10.6,0.7-21.9-4.6-24.7c-4.5-2.4-10.8,1.6-14.2,10.1"/>
		<g>
			<polygon class="st21" points="221,104.3 222.6,107.5 225.8,105.9 225.1,107.9 221.9,109.5 220.3,106.3 			"/>
		</g>
	</g>
</g>
<text transform="matrix(1 0 0 1 164.9102 103.074)" class="st21 st10 st11">Mexico</text>
</svg>
