<?xml version="1.0" encoding="utf-8"?>
<!-- Generator: Adobe Illustrator 27.2.0, SVG Export Plug-In . SVG Version: 6.00 Build 0)  -->
<svg version="1.1" id="Layer_1" xmlns="http://www.w3.org/2000/svg" xmlns:xlink="http://www.w3.org/1999/xlink" x="0px" y="0px"
	 viewBox="0 0 900 300" style="enable-background:new 0 0 900 300;" xml:space="preserve">
<style type="text/css">
	.st0{fill:none;}
	.st1{fill:#FFFFFF;}
	
		.st2{fill:#00BFC4;fill-opacity:0.55;stroke:#00BFC4;stroke-width:0.71;stroke-linecap:round;stroke-linejoin:round;stroke-miterlimit:10;stroke-opacity:0.55;}
	
		.st3{fill:#F8766D;fill-opacity:0.55;stroke:#F8766D;stroke-width:0.71;stroke-linecap:round;stroke-linejoin:round;stroke-miterlimit:10;stroke-opacity:0.55;}
	
		.st4{fill:#C77CFF;fill-opacity:0.55;stroke:#C77CFF;stroke-width:0.71;stroke-linecap:round;stroke-linejoin:round;stroke-miterlimit:10;stroke-opacity:0.55;}
	
		.st5{fill:#7CAE00;fill-opacity:0.55;stroke:#7CAE00;stroke-width:0.71;stroke-linecap:round;stroke-linejoin:round;stroke-miterlimit:10;stroke-opacity:0.55;}
	.st6{fill:#FF3A45;stroke:#FF3A45;}
	.st7{font-family:'ArialMT';}
	.st8{font-size:18px;}
	.st9{fill:#566A0B;stroke:#566A0B;}
	.st10{fill:#3FBBCC;stroke:#3FBBCC;}
	.st11{fill:none;stroke:#333333;stroke-width:1.07;stroke-linejoin:round;stroke-miterlimit:10;}
	.st12{fill:#C77CFF;stroke:#C77CFF;stroke-width:0.71;stroke-linecap:round;stroke-linejoin:round;stroke-miterlimit:10;}
	.st13{fill:#CC66FF;stroke:#CC66FF;}
	.st14{font-family:'Arial-BoldMT';}
	.st15{fill:#FF0FFF;}
	.st16{fill:none;stroke:#231F20;}
	.st17{fill:#CC66FF;}
	.st18{fill:none;stroke:#CC66FF;stroke-width:2;}
	.st19{fill:#FF3A45;}
	.st20{fill:none;stroke:#FF3A45;stroke-width:2;}
	.st21{fill:#566A0B;}
	.st22{fill:none;stroke:#566A0B;stroke-width:2;}
	.st23{fill:#3FDBCC;}
	.st24{fill:none;stroke:#3FDBCC;stroke-width:2;}
	.st25{fill:#3FBBCC;}
</style>
<rect class="st0" width="900" height="300"/>
<rect x="57.2" y="23.3" class="st0" width="758.9" height="244.9"/>
<rect x="59.2" y="23.3" class="st1" width="758.9" height="244.9"/>
<circle class="st2" cx="577.4" cy="116.6" r="5.2"/>
<circle class="st3" cx="91.7" cy="233.3" r="5.2"/>
<circle class="st4" cx="91.7" cy="58.3" r="5.2"/>
<circle class="st5" cx="395.3" cy="175" r="5.2"/>
<circle class="st2" cx="566.8" cy="116.6" r="5.2"/>
<circle class="st3" cx="91.7" cy="233.3" r="5.2"/>
<circle class="st4" cx="131.3" cy="58.3" r="5.2"/>
<circle class="st5" cx="368.9" cy="175" r="5.2"/>
<circle class="st2" cx="547" cy="116.6" r="5.2"/>
<circle class="st3" cx="126.7" cy="233.3" r="5.2"/>
<circle class="st4" cx="161.8" cy="58.3" r="5.2"/>
<circle class="st5" cx="231.8" cy="175" r="5.2"/>
<circle class="st2" cx="671.2" cy="116.6" r="5.2"/>
<circle class="st3" cx="133.1" cy="233.3" r="5.2"/>
<circle class="st4" cx="133.1" cy="58.3" r="5.2"/>
<circle class="st5" cx="505.6" cy="175" r="5.2"/>
<circle class="st2" cx="631.4" cy="116.6" r="5.2"/>
<circle class="st3" cx="91.7" cy="233.3" r="5.2"/>
<circle class="st4" cx="125.4" cy="58.3" r="5.2"/>
<circle class="st5" cx="462.7" cy="175" r="5.2"/>
<circle class="st2" cx="752" cy="116.6" r="5.2"/>
<circle class="st3" cx="91.7" cy="233.3" r="5.2"/>
<circle class="st4" cx="114.5" cy="58.3" r="5.2"/>
<circle class="st5" cx="547" cy="175" r="5.2"/>
<circle class="st2" cx="515.3" cy="116.6" r="5.2"/>
<circle class="st3" cx="102.3" cy="233.3" r="5.2"/>
<circle class="st4" cx="123.5" cy="58.3" r="5.2"/>
<circle class="st5" cx="292.9" cy="175" r="5.2"/>
<circle class="st2" cx="350.4" cy="116.6" r="5.2"/>
<circle class="st3" cx="215.9" cy="233.3" r="5.2"/>
<circle class="st4" cx="164.1" cy="58.3" r="5.2"/>
<circle class="st5" cx="236.6" cy="175" r="5.2"/>
<circle class="st2" cx="754" cy="116.6" r="5.2"/>
<circle class="st3" cx="91.7" cy="233.3" r="5.2"/>
<circle class="st4" cx="91.7" cy="58.3" r="5.2"/>
<circle class="st5" cx="422.9" cy="175" r="5.2"/>
<circle class="st2" cx="638.1" cy="116.6" r="5.2"/>
<circle class="st3" cx="91.7" cy="233.3" r="5.2"/>
<circle class="st4" cx="91.7" cy="58.3" r="5.2"/>
<circle class="st5" cx="638.1" cy="175" r="5.2"/>
<circle class="st2" cx="460.3" cy="116.6" r="5.2"/>
<circle class="st3" cx="135.1" cy="233.3" r="5.2"/>
<circle class="st4" cx="91.7" cy="58.3" r="5.2"/>
<circle class="st5" cx="286.9" cy="175" r="5.2"/>
<circle class="st2" cx="536.5" cy="116.6" r="5.2"/>
<circle class="st3" cx="112.9" cy="233.3" r="5.2"/>
<circle class="st4" cx="134.1" cy="58.3" r="5.2"/>
<circle class="st5" cx="303.5" cy="175" r="5.2"/>
<circle class="st2" cx="597.6" cy="116.6" r="5.2"/>
<circle class="st3" cx="91.7" cy="233.3" r="5.2"/>
<circle class="st4" cx="91.7" cy="58.3" r="5.2"/>
<circle class="st5" cx="294.1" cy="175" r="5.2"/>
<circle class="st2" cx="319.4" cy="116.6" r="5.2"/>
<circle class="st3" cx="91.7" cy="233.3" r="5.2"/>
<circle class="st4" cx="91.7" cy="58.3" r="5.2"/>
<circle class="st5" cx="262.5" cy="175" r="5.2"/>
<circle class="st2" cx="714.8" cy="116.6" r="5.2"/>
<circle class="st3" cx="91.7" cy="233.3" r="5.2"/>
<circle class="st4" cx="91.7" cy="58.3" r="5.2"/>
<circle class="st5" cx="475.1" cy="175" r="5.2"/>
<circle class="st2" cx="374" cy="116.6" r="5.2"/>
<circle class="st3" cx="210.1" cy="233.3" r="5.2"/>
<circle class="st4" cx="164.6" cy="58.3" r="5.2"/>
<circle class="st5" cx="237.4" cy="175" r="5.2"/>
<circle class="st2" cx="486.3" cy="116.6" r="5.2"/>
<circle class="st3" cx="91.7" cy="233.3" r="5.2"/>
<circle class="st4" cx="152.4" cy="58.3" r="5.2"/>
<circle class="st5" cx="334.5" cy="175" r="5.2"/>
<circle class="st2" cx="604" cy="116.6" r="5.2"/>
<circle class="st3" cx="177.1" cy="233.3" r="5.2"/>
<circle class="st4" cx="177.1" cy="58.3" r="5.2"/>
<circle class="st5" cx="347.8" cy="175" r="5.2"/>
<circle class="st2" cx="368.2" cy="116.6" r="5.2"/>
<circle class="st3" cx="124.2" cy="233.3" r="5.2"/>
<circle class="st4" cx="124.2" cy="58.3" r="5.2"/>
<circle class="st5" cx="221.8" cy="175" r="5.2"/>
<circle class="st2" cx="359.1" cy="116.6" r="5.2"/>
<circle class="st3" cx="164" cy="233.3" r="5.2"/>
<circle class="st4" cx="207.3" cy="58.3" r="5.2"/>
<circle class="st5" cx="229" cy="175" r="5.2"/>
<circle class="st2" cx="499.1" cy="116.6" r="5.2"/>
<circle class="st3" cx="211.5" cy="233.3" r="5.2"/>
<circle class="st4" cx="235.5" cy="58.3" r="5.2"/>
<circle class="st5" cx="379.3" cy="175" r="5.2"/>
<circle class="st2" cx="482" cy="116.6" r="5.2"/>
<circle class="st3" cx="91.7" cy="233.3" r="5.2"/>
<circle class="st4" cx="91.7" cy="58.3" r="5.2"/>
<circle class="st5" cx="221.8" cy="175" r="5.2"/>
<circle class="st2" cx="547" cy="116.6" r="5.2"/>
<circle class="st3" cx="129.6" cy="233.3" r="5.2"/>
<circle class="st4" cx="129.6" cy="58.3" r="5.2"/>
<circle class="st5" cx="243.5" cy="175" r="5.2"/>
<circle class="st2" cx="359.5" cy="116.6" r="5.2"/>
<circle class="st3" cx="252.4" cy="233.3" r="5.2"/>
<circle class="st4" cx="91.7" cy="58.3" r="5.2"/>
<circle class="st5" cx="91.7" cy="175" r="5.2"/>
<circle class="st2" cx="568.7" cy="116.6" r="5.2"/>
<circle class="st3" cx="91.7" cy="233.3" r="5.2"/>
<circle class="st4" cx="135.1" cy="58.3" r="5.2"/>
<circle class="st5" cx="351.9" cy="175" r="5.2"/>
<circle class="st2" cx="605.4" cy="116.6" r="5.2"/>
<circle class="st3" cx="161.8" cy="233.3" r="5.2"/>
<circle class="st4" cx="138.4" cy="58.3" r="5.2"/>
<circle class="st5" cx="325.2" cy="175" r="5.2"/>
<circle class="st2" cx="725.2" cy="116.6" r="5.2"/>
<circle class="st3" cx="111.5" cy="233.3" r="5.2"/>
<circle class="st4" cx="111.5" cy="58.3" r="5.2"/>
<circle class="st5" cx="606.4" cy="175" r="5.2"/>
<circle class="st2" cx="597.6" cy="116.6" r="5.2"/>
<circle class="st3" cx="129.6" cy="233.3" r="5.2"/>
<circle class="st4" cx="104.3" cy="58.3" r="5.2"/>
<circle class="st5" cx="294.1" cy="175" r="5.2"/>
<circle class="st2" cx="588.4" cy="116.6" r="5.2"/>
<circle class="st3" cx="91.7" cy="233.3" r="5.2"/>
<circle class="st4" cx="133.1" cy="58.3" r="5.2"/>
<circle class="st5" cx="298.7" cy="175" r="5.2"/>
<circle class="st2" cx="633.8" cy="116.6" r="5.2"/>
<circle class="st3" cx="113.4" cy="233.3" r="5.2"/>
<circle class="st4" cx="113.4" cy="58.3" r="5.2"/>
<circle class="st5" cx="460.3" cy="175" r="5.2"/>
<circle class="st2" cx="456" cy="116.6" r="5.2"/>
<circle class="st3" cx="91.7" cy="233.3" r="5.2"/>
<circle class="st4" cx="91.7" cy="58.3" r="5.2"/>
<circle class="st5" cx="299.9" cy="175" r="5.2"/>
<ellipse transform="matrix(0.1602 -0.9871 0.9871 0.1602 312.4172 600.4825)" class="st2" cx="509.1" cy="116.6" rx="5.2" ry="5.2"/>
<circle class="st3" cx="205.5" cy="233.3" r="5.2"/>
<circle class="st4" cx="281.4" cy="58.3" r="5.2"/>
<circle class="st5" cx="395.3" cy="175" r="5.2"/>
<circle class="st2" cx="364.9" cy="116.6" r="5.2"/>
<circle class="st3" cx="91.7" cy="233.3" r="5.2"/>
<circle class="st4" cx="91.7" cy="58.3" r="5.2"/>
<circle class="st5" cx="213.1" cy="175" r="5.2"/>
<circle class="st2" cx="499.9" cy="116.6" r="5.2"/>
<circle class="st3" cx="91.7" cy="233.3" r="5.2"/>
<circle class="st4" cx="91.7" cy="58.3" r="5.2"/>
<circle class="st5" cx="280.1" cy="175" r="5.2"/>
<circle class="st2" cx="666.9" cy="116.6" r="5.2"/>
<circle class="st3" cx="139.6" cy="233.3" r="5.2"/>
<circle class="st4" cx="91.7" cy="58.3" r="5.2"/>
<circle class="st5" cx="427.2" cy="175" r="5.2"/>
<circle class="st2" cx="427.2" cy="116.6" r="5.2"/>
<circle class="st3" cx="91.7" cy="233.3" r="5.2"/>
<circle class="st4" cx="91.7" cy="58.3" r="5.2"/>
<circle class="st5" cx="187.6" cy="175" r="5.2"/>
<circle class="st2" cx="634" cy="116.6" r="5.2"/>
<circle class="st3" cx="142.9" cy="233.3" r="5.2"/>
<circle class="st4" cx="112.2" cy="58.3" r="5.2"/>
<circle class="st5" cx="316.8" cy="175" r="5.2"/>
<circle class="st2" cx="573.8" cy="116.6" r="5.2"/>
<circle class="st3" cx="145.3" cy="233.3" r="5.2"/>
<circle class="st4" cx="91.7" cy="58.3" r="5.2"/>
<circle class="st5" cx="198.8" cy="175" r="5.2"/>
<circle class="st2" cx="424.9" cy="116.6" r="5.2"/>
<circle class="st3" cx="158.3" cy="233.3" r="5.2"/>
<circle class="st4" cx="158.3" cy="58.3" r="5.2"/>
<circle class="st5" cx="180.6" cy="175" r="5.2"/>
<circle class="st2" cx="604" cy="116.6" r="5.2"/>
<circle class="st3" cx="120.2" cy="233.3" r="5.2"/>
<circle class="st4" cx="91.7" cy="58.3" r="5.2"/>
<circle class="st5" cx="376.3" cy="175" r="5.2"/>
<circle class="st2" cx="547" cy="116.6" r="5.2"/>
<circle class="st3" cx="211.5" cy="233.3" r="5.2"/>
<circle class="st4" cx="139.6" cy="58.3" r="5.2"/>
<circle class="st5" cx="331.4" cy="175" r="5.2"/>
<circle class="st2" cx="714.8" cy="116.6" r="5.2"/>
<circle class="st3" cx="91.7" cy="233.3" r="5.2"/>
<circle class="st4" cx="91.7" cy="58.3" r="5.2"/>
<circle class="st5" cx="283.4" cy="175" r="5.2"/>
<circle class="st2" cx="582.1" cy="116.6" r="5.2"/>
<circle class="st3" cx="115.1" cy="233.3" r="5.2"/>
<circle class="st4" cx="91.7" cy="58.3" r="5.2"/>
<circle class="st5" cx="442" cy="175" r="5.2"/>
<circle class="st2" cx="503.7" cy="116.6" r="5.2"/>
<circle class="st3" cx="373.6" cy="233.3" r="5.2"/>
<circle class="st4" cx="243.5" cy="58.3" r="5.2"/>
<circle class="st5" cx="91.7" cy="175" r="5.2"/>
<circle class="st2" cx="438.6" cy="116.6" r="5.2"/>
<circle class="st3" cx="135.1" cy="233.3" r="5.2"/>
<circle class="st4" cx="135.1" cy="58.3" r="5.2"/>
<circle class="st5" cx="265.2" cy="175" r="5.2"/>
<ellipse transform="matrix(0.1602 -0.9871 0.9871 0.1602 312.4172 600.4825)" class="st2" cx="509.1" cy="116.6" rx="5.2" ry="5.2"/>
<circle class="st3" cx="167.6" cy="233.3" r="5.2"/>
<circle class="st4" cx="129.6" cy="58.3" r="5.2"/>
<circle class="st5" cx="319.4" cy="175" r="5.2"/>
<circle class="st2" cx="389.2" cy="116.6" r="5.2"/>
<circle class="st3" cx="190.9" cy="233.3" r="5.2"/>
<circle class="st4" cx="208.9" cy="58.3" r="5.2"/>
<circle class="st5" cx="272" cy="175" r="5.2"/>
<circle class="st2" cx="310.5" cy="116.6" r="5.2"/>
<circle class="st3" cx="218.8" cy="233.3" r="5.2"/>
<circle class="st4" cx="183.5" cy="58.3" r="5.2"/>
<circle class="st5" cx="247" cy="175" r="5.2"/>
<circle class="st2" cx="442" cy="116.6" r="5.2"/>
<circle class="st3" cx="196.8" cy="233.3" r="5.2"/>
<circle class="st4" cx="231.8" cy="58.3" r="5.2"/>
<circle class="st5" cx="196.8" cy="175" r="5.2"/>
<circle class="st2" cx="505.6" cy="116.6" r="5.2"/>
<circle class="st3" cx="119.3" cy="233.3" r="5.2"/>
<circle class="st4" cx="119.3" cy="58.3" r="5.2"/>
<circle class="st5" cx="202.1" cy="175" r="5.2"/>
<circle class="st2" cx="556.3" cy="116.6" r="5.2"/>
<circle class="st3" cx="110.3" cy="233.3" r="5.2"/>
<circle class="st4" cx="128.9" cy="58.3" r="5.2"/>
<circle class="st5" cx="351.9" cy="175" r="5.2"/>
<circle class="st2" cx="319.4" cy="116.6" r="5.2"/>
<circle class="st3" cx="91.7" cy="233.3" r="5.2"/>
<circle class="st4" cx="91.7" cy="58.3" r="5.2"/>
<circle class="st5" cx="243.5" cy="175" r="5.2"/>
<circle class="st2" cx="464.3" cy="116.6" r="5.2"/>
<circle class="st3" cx="215.9" cy="233.3" r="5.2"/>
<circle class="st4" cx="133.1" cy="58.3" r="5.2"/>
<circle class="st5" cx="340.1" cy="175" r="5.2"/>
<circle class="st2" cx="417" cy="116.6" r="5.2"/>
<circle class="st3" cx="117.7" cy="233.3" r="5.2"/>
<circle class="st4" cx="130.7" cy="58.3" r="5.2"/>
<circle class="st5" cx="234.8" cy="175" r="5.2"/>
<circle class="st2" cx="404.8" cy="116.6" r="5.2"/>
<circle class="st3" cx="91.7" cy="233.3" r="5.2"/>
<circle class="st4" cx="120.2" cy="58.3" r="5.2"/>
<circle class="st5" cx="347.8" cy="175" r="5.2"/>
<circle class="st2" cx="422.9" cy="116.6" r="5.2"/>
<circle class="st3" cx="174.5" cy="233.3" r="5.2"/>
<circle class="st4" cx="195.2" cy="58.3" r="5.2"/>
<circle class="st5" cx="298.7" cy="175" r="5.2"/>
<circle class="st2" cx="361.8" cy="116.6" r="5.2"/>
<circle class="st3" cx="167.1" cy="233.3" r="5.2"/>
<circle class="st4" cx="179.6" cy="58.3" r="5.2"/>
<circle class="st5" cx="273.8" cy="175" r="5.2"/>
<circle class="st2" cx="405.7" cy="116.6" r="5.2"/>
<circle class="st3" cx="123.1" cy="233.3" r="5.2"/>
<circle class="st4" cx="154.5" cy="58.3" r="5.2"/>
<circle class="st5" cx="154.5" cy="175" r="5.2"/>
<circle class="st2" cx="622.9" cy="116.6" r="5.2"/>
<circle class="st3" cx="91.7" cy="233.3" r="5.2"/>
<circle class="st4" cx="91.7" cy="58.3" r="5.2"/>
<circle class="st5" cx="395.3" cy="175" r="5.2"/>
<circle class="st2" cx="512" cy="116.6" r="5.2"/>
<circle class="st3" cx="91.7" cy="233.3" r="5.2"/>
<circle class="st4" cx="91.7" cy="58.3" r="5.2"/>
<circle class="st5" cx="442" cy="175" r="5.2"/>
<circle class="st2" cx="395.3" cy="116.6" r="5.2"/>
<circle class="st3" cx="125.4" cy="233.3" r="5.2"/>
<circle class="st4" cx="159.2" cy="58.3" r="5.2"/>
<circle class="st5" cx="159.2" cy="175" r="5.2"/>
<circle class="st2" cx="336.9" cy="116.6" r="5.2"/>
<circle class="st3" cx="208.4" cy="233.3" r="5.2"/>
<circle class="st4" cx="161.8" cy="58.3" r="5.2"/>
<circle class="st5" cx="255.2" cy="175" r="5.2"/>
<circle class="st2" cx="558.4" cy="116.6" r="5.2"/>
<circle class="st3" cx="251.1" cy="233.3" r="5.2"/>
<circle class="st4" cx="239.7" cy="58.3" r="5.2"/>
<circle class="st5" cx="535.7" cy="175" r="5.2"/>
<circle class="st2" cx="584" cy="116.6" r="5.2"/>
<circle class="st3" cx="91.7" cy="233.3" r="5.2"/>
<circle class="st4" cx="116.3" cy="58.3" r="5.2"/>
<circle class="st5" cx="337.8" cy="175" r="5.2"/>
<circle class="st2" cx="482" cy="116.6" r="5.2"/>
<circle class="st3" cx="91.7" cy="233.3" r="5.2"/>
<circle class="st4" cx="91.7" cy="58.3" r="5.2"/>
<circle class="st5" cx="286.9" cy="175" r="5.2"/>
<circle class="st2" cx="513.7" cy="116.6" r="5.2"/>
<circle class="st3" cx="136.1" cy="233.3" r="5.2"/>
<circle class="st4" cx="158.3" cy="58.3" r="5.2"/>
<circle class="st5" cx="202.8" cy="175" r="5.2"/>
<circle class="st2" cx="411.7" cy="116.6" r="5.2"/>
<circle class="st3" cx="91.7" cy="233.3" r="5.2"/>
<circle class="st4" cx="116.3" cy="58.3" r="5.2"/>
<circle class="st5" cx="288.6" cy="175" r="5.2"/>
<circle class="st2" cx="690.8" cy="116.6" r="5.2"/>
<circle class="st3" cx="139.6" cy="233.3" r="5.2"/>
<circle class="st4" cx="163.6" cy="58.3" r="5.2"/>
<circle class="st5" cx="499.1" cy="175" r="5.2"/>
<circle class="st2" cx="781.6" cy="116.6" r="5.2"/>
<circle class="st3" cx="91.7" cy="233.3" r="5.2"/>
<circle class="st4" cx="119.3" cy="58.3" r="5.2"/>
<circle class="st5" cx="395.3" cy="175" r="5.2"/>
<rect class="st0" width="900" height="300"/>
<text transform="matrix(1 0 0 1 18.5266 236.43)" class="st6 st7 st8">anger</text>
<text transform="matrix(1 0 0 1 18.9299 178.11)" class="st9 st7 st8">joy</text>
<text transform="matrix(1 0 0 1 18.5266 119.8)" class="st10 st7 st8">positivity</text>
<line class="st11" x1="91.7" y1="271" x2="91.7" y2="268.3"/>
<path class="st11" d="M273.8,268.3"/>
<path class="st11" d="M456,268.3"/>
<path class="st11" d="M638.1,268.3"/>
<rect x="832.6" y="81.4" class="st1" width="17.3" height="17.3"/>
<rect x="832.6" y="98.7" class="st1" width="17.3" height="17.3"/>
<circle class="st12" cx="841.2" cy="124.6" r="2"/>
<rect x="832.6" y="171" class="st1" width="17.3" height="17.3"/>
<rect x="827.1" y="204.7" class="st1" width="50.8" height="44"/>
<rect x="832.6" y="226" class="st1" width="17.3" height="17.3"/>
<text transform="matrix(1 0 0 1 18.2873 64.1402)" class="st13 st14 st8">sad</text>
<path class="st0" d="M286.6,58.3c0,55.3,44.7,100,100,100"/>
<path class="st0" d="M286.6,58.3c0-1.1,2.7-2,6-2"/>
<g>
	<path class="st15" d="M284.3,56.3c0-6.2,18.5-11.1,41.4-11.1"/>
	<path class="st16" d="M284.3,56.3c0-6.2,18.5-11.1,41.4-11.1"/>
	<path class="st17" d="M284.3,56.3c0-6.2,18.5-11.1,41.4-11.1"/>
	<g>
		<path class="st18" d="M296.4,48.5c7.5-2,17.9-3.3,29.4-3.3"/>
		<g>
			<polygon class="st17" points="304.3,56.2 284.3,56.3 294.2,39 			"/>
		</g>
	</g>
</g>
<g>
	<path class="st15" d="M378.9,232.2c0-7.7,18.5-13.9,41.4-13.9"/>
	<path class="st16" d="M378.9,232.2c0-7.7,18.5-13.9,41.4-13.9"/>
	<path class="st19" d="M378.9,232.2c0-7.7,18.5-13.9,41.4-13.9"/>
	<g>
		<path class="st20" d="M389.7,222.8c7.6-2.8,18.4-4.5,30.6-4.5"/>
		<g>
			<polygon class="st19" points="398.6,229.5 378.9,232.2 386.4,213.8 			"/>
		</g>
	</g>
</g>
<g>
	<path class="st15" d="M641,180.4c5.2-3.1,19,10.1,30.9,29.7"/>
	<path class="st16" d="M641,180.4c5.2-3.1,19,10.1,30.9,29.7"/>
	<path class="st21" d="M641,180.4c5.2-3.1,19,10.1,30.9,29.7"/>
	<g>
		<path class="st22" d="M653.9,186.8c5.6,5.4,12,13.6,18,23.4"/>
		<g>
			<polygon class="st21" points="651.3,197.5 641,180.4 661,180 			"/>
		</g>
	</g>
</g>
<g>
	<path class="st15" d="M780.4,108.5c6.2-2.5,5.4-18.9-1.8-36.8"/>
	<path class="st16" d="M780.4,108.5c6.2-2.5,5.4-18.9-1.8-36.8"/>
	<path class="st23" d="M780.4,108.5c6.2-2.5,5.4-18.9-1.8-36.8"/>
	<g>
		<path class="st24" d="M784.5,94.7c-0.5-6.5-2.4-14.6-5.8-23"/>
		<g>
			<polygon class="st23" points="794.1,93.9 780.4,108.5 774.6,89.4 			"/>
		</g>
	</g>
</g>
<text transform="matrix(1 0 0 1 339.7402 45.1814)" class="st17 st14 st8">Greenland</text>
<text transform="matrix(1 0 0 1 730.42 64.2947)" class="st25 st14 st8">Malaysia</text>
<text transform="matrix(1 0 0 1 672.0699 229.0101)" class="st21 st14 st8">Brazil</text>
<text transform="matrix(1 0 0 1 424.88 218.3056)" class="st19 st14 st8">Iran</text>
<text transform="matrix(1 0 0 1 213.6399 286.5321)" class="st14 st8">SCORE OF NATIONAL ANTHEM LYRICS FOR EACH EMOTION</text>
</svg>
