<?xml version="1.0" encoding="utf-8"?>
<!-- Generator: Adobe Illustrator 27.2.0, SVG Export Plug-In . SVG Version: 6.00 Build 0)  -->
<svg version="1.1" id="Layer_1" xmlns="http://www.w3.org/2000/svg" xmlns:xlink="http://www.w3.org/1999/xlink" x="0px" y="0px"
	 viewBox="0 0 400 200" style="enable-background:new 0 0 400 200;" xml:space="preserve">
<style type="text/css">
	.st0{fill:none;}
	
		.st1{fill:#00BFC4;fill-opacity:0.55;stroke:#00BFC4;stroke-width:0.71;stroke-linecap:round;stroke-linejoin:round;stroke-miterlimit:10;stroke-opacity:0.55;}
	
		.st2{fill:#F8766D;fill-opacity:0.55;stroke:#F8766D;stroke-width:0.71;stroke-linecap:round;stroke-linejoin:round;stroke-miterlimit:10;stroke-opacity:0.55;}
	
		.st3{fill:#C77CFF;fill-opacity:0.55;stroke:#C77CFF;stroke-width:0.71;stroke-linecap:round;stroke-linejoin:round;stroke-miterlimit:10;stroke-opacity:0.55;}
	
		.st4{fill:#7CAE00;fill-opacity:0.55;stroke:#7CAE00;stroke-width:0.71;stroke-linecap:round;stroke-linejoin:round;stroke-miterlimit:10;stroke-opacity:0.55;}
	.st5{fill:none;stroke:#333333;stroke-width:1.07;stroke-linejoin:round;stroke-miterlimit:10;}
	.st6{fill:#4D4D4D;}
	.st7{font-family:'ArialMT';}
	.st8{font-size:8.8px;}
	.st9{fill:#FFFFFF;}
	.st10{font-family:'Arial-BoldMT';}
	.st11{font-size:10px;}
	.st12{fill:#CC66FF;stroke:#CC66FF;}
	.st13{font-size:12px;}
	.st14{fill:#3FBBCC;stroke:#3FBBCC;}
	.st15{fill:#FF3A45;stroke:#FF3A45;}
	.st16{fill:#566A0B;stroke:#566A0B;}
	.st17{fill:#CC66FF;}
	.st18{fill:#3FBBCC;}
	.st19{fill:#566A0B;}
	.st20{fill:#FF3A45;}
</style>
<rect x="15.5" y="6.2" class="st0" width="400" height="200"/>
<rect x="57.2" y="23.3" class="st0" width="258.9" height="144.9"/>
<circle class="st1" cx="234.7" cy="78.6" r="5.2"/>
<circle class="st2" cx="69" cy="147.6" r="5.2"/>
<circle class="st3" cx="69" cy="44" r="5.2"/>
<circle class="st4" cx="172.5" cy="113.1" r="5.2"/>
<circle class="st1" cx="231.1" cy="78.6" r="5.2"/>
<circle class="st2" cx="69" cy="147.6" r="5.2"/>
<circle class="st3" cx="82.5" cy="44" r="5.2"/>
<circle class="st4" cx="163.5" cy="113.1" r="5.2"/>
<circle class="st1" cx="224.3" cy="78.6" r="5.2"/>
<circle class="st2" cx="80.9" cy="147.6" r="5.2"/>
<circle class="st3" cx="92.9" cy="44" r="5.2"/>
<circle class="st4" cx="116.8" cy="113.1" r="5.2"/>
<circle class="st1" cx="266.7" cy="78.6" r="5.2"/>
<circle class="st2" cx="83.1" cy="147.6" r="5.2"/>
<circle class="st3" cx="83.1" cy="44" r="5.2"/>
<circle class="st4" cx="210.2" cy="113.1" r="5.2"/>
<circle class="st1" cx="253.1" cy="78.6" r="5.2"/>
<circle class="st2" cx="69" cy="147.6" r="5.2"/>
<circle class="st3" cx="80.5" cy="44" r="5.2"/>
<circle class="st4" cx="195.6" cy="113.1" r="5.2"/>
<circle class="st1" cx="294.2" cy="78.6" r="5.2"/>
<circle class="st2" cx="69" cy="147.6" r="5.2"/>
<circle class="st3" cx="76.7" cy="44" r="5.2"/>
<circle class="st4" cx="224.3" cy="113.1" r="5.2"/>
<circle class="st1" cx="213.5" cy="78.6" r="5.2"/>
<circle class="st2" cx="72.6" cy="147.6" r="5.2"/>
<circle class="st3" cx="79.8" cy="44" r="5.2"/>
<circle class="st4" cx="137.6" cy="113.1" r="5.2"/>
<circle class="st1" cx="157.2" cy="78.6" r="5.2"/>
<circle class="st2" cx="111.3" cy="147.6" r="5.2"/>
<circle class="st3" cx="93.7" cy="44" r="5.2"/>
<circle class="st4" cx="118.4" cy="113.1" r="5.2"/>
<circle class="st1" cx="294.9" cy="78.6" r="5.2"/>
<circle class="st2" cx="69" cy="147.6" r="5.2"/>
<circle class="st3" cx="69" cy="44" r="5.2"/>
<circle class="st4" cx="181.9" cy="113.1" r="5.2"/>
<ellipse transform="matrix(0.1602 -0.9871 0.9871 0.1602 136.9453 318.0599)" class="st1" cx="255.4" cy="78.6" rx="5.2" ry="5.2"/>
<circle class="st2" cx="69" cy="147.6" r="5.2"/>
<circle class="st3" cx="69" cy="44" r="5.2"/>
<ellipse transform="matrix(0.1602 -0.9871 0.9871 0.1602 102.8908 347.0336)" class="st4" cx="255.4" cy="113.1" rx="5.2" ry="5.2"/>
<circle class="st1" cx="194.7" cy="78.6" r="5.2"/>
<circle class="st2" cx="83.8" cy="147.6" r="5.2"/>
<circle class="st3" cx="69" cy="44" r="5.2"/>
<circle class="st4" cx="135.6" cy="113.1" r="5.2"/>
<circle class="st1" cx="220.7" cy="78.6" r="5.2"/>
<circle class="st2" cx="76.2" cy="147.6" r="5.2"/>
<circle class="st3" cx="83.4" cy="44" r="5.2"/>
<circle class="st4" cx="141.2" cy="113.1" r="5.2"/>
<circle class="st1" cx="241.6" cy="78.6" r="5.2"/>
<circle class="st2" cx="69" cy="147.6" r="5.2"/>
<circle class="st3" cx="69" cy="44" r="5.2"/>
<circle class="st4" cx="138" cy="113.1" r="5.2"/>
<circle class="st1" cx="146.6" cy="78.6" r="5.2"/>
<circle class="st2" cx="69" cy="147.6" r="5.2"/>
<circle class="st3" cx="69" cy="44" r="5.2"/>
<circle class="st4" cx="127.2" cy="113.1" r="5.2"/>
<circle class="st1" cx="281.5" cy="78.6" r="5.2"/>
<circle class="st2" cx="69" cy="147.6" r="5.2"/>
<circle class="st3" cx="69" cy="44" r="5.2"/>
<circle class="st4" cx="199.8" cy="113.1" r="5.2"/>
<circle class="st1" cx="165.3" cy="78.6" r="5.2"/>
<circle class="st2" cx="109.4" cy="147.6" r="5.2"/>
<circle class="st3" cx="93.8" cy="44" r="5.2"/>
<circle class="st4" cx="118.7" cy="113.1" r="5.2"/>
<circle class="st1" cx="203.6" cy="78.6" r="5.2"/>
<circle class="st2" cx="69" cy="147.6" r="5.2"/>
<circle class="st3" cx="89.7" cy="44" r="5.2"/>
<circle class="st4" cx="151.8" cy="113.1" r="5.2"/>
<circle class="st1" cx="243.7" cy="78.6" r="5.2"/>
<circle class="st2" cx="98.1" cy="147.6" r="5.2"/>
<circle class="st3" cx="98.1" cy="44" r="5.2"/>
<circle class="st4" cx="156.4" cy="113.1" r="5.2"/>
<circle class="st1" cx="163.3" cy="78.6" r="5.2"/>
<circle class="st2" cx="80.1" cy="147.6" r="5.2"/>
<circle class="st3" cx="80.1" cy="44" r="5.2"/>
<circle class="st4" cx="113.4" cy="113.1" r="5.2"/>
<circle class="st1" cx="160.2" cy="78.6" r="5.2"/>
<circle class="st2" cx="93.6" cy="147.6" r="5.2"/>
<circle class="st3" cx="108.4" cy="44" r="5.2"/>
<circle class="st4" cx="115.8" cy="113.1" r="5.2"/>
<circle class="st1" cx="208" cy="78.6" r="5.2"/>
<circle class="st2" cx="109.8" cy="147.6" r="5.2"/>
<circle class="st3" cx="118" cy="44" r="5.2"/>
<circle class="st4" cx="167.1" cy="113.1" r="5.2"/>
<circle class="st1" cx="202.1" cy="78.6" r="5.2"/>
<circle class="st2" cx="69" cy="147.6" r="5.2"/>
<circle class="st3" cx="69" cy="44" r="5.2"/>
<circle class="st4" cx="113.4" cy="113.1" r="5.2"/>
<circle class="st1" cx="224.3" cy="78.6" r="5.2"/>
<circle class="st2" cx="81.9" cy="147.6" r="5.2"/>
<circle class="st3" cx="81.9" cy="44" r="5.2"/>
<circle class="st4" cx="120.8" cy="113.1" r="5.2"/>
<circle class="st1" cx="160.4" cy="78.6" r="5.2"/>
<circle class="st2" cx="123.8" cy="147.6" r="5.2"/>
<circle class="st3" cx="69" cy="44" r="5.2"/>
<circle class="st4" cx="69" cy="113.1" r="5.2"/>
<circle class="st1" cx="231.7" cy="78.6" r="5.2"/>
<circle class="st2" cx="69" cy="147.6" r="5.2"/>
<circle class="st3" cx="83.8" cy="44" r="5.2"/>
<circle class="st4" cx="157.7" cy="113.1" r="5.2"/>
<circle class="st1" cx="244.2" cy="78.6" r="5.2"/>
<circle class="st2" cx="92.9" cy="147.6" r="5.2"/>
<circle class="st3" cx="84.9" cy="44" r="5.2"/>
<circle class="st4" cx="148.6" cy="113.1" r="5.2"/>
<circle class="st1" cx="285.1" cy="78.6" r="5.2"/>
<circle class="st2" cx="75.7" cy="147.6" r="5.2"/>
<circle class="st3" cx="75.7" cy="44" r="5.2"/>
<circle class="st4" cx="244.6" cy="113.1" r="5.2"/>
<circle class="st1" cx="241.6" cy="78.6" r="5.2"/>
<circle class="st2" cx="81.9" cy="147.6" r="5.2"/>
<circle class="st3" cx="73.3" cy="44" r="5.2"/>
<circle class="st4" cx="138" cy="113.1" r="5.2"/>
<circle class="st1" cx="238.4" cy="78.6" r="5.2"/>
<circle class="st2" cx="69" cy="147.6" r="5.2"/>
<circle class="st3" cx="83.1" cy="44" r="5.2"/>
<circle class="st4" cx="139.6" cy="113.1" r="5.2"/>
<circle class="st1" cx="253.9" cy="78.6" r="5.2"/>
<circle class="st2" cx="76.4" cy="147.6" r="5.2"/>
<circle class="st3" cx="76.4" cy="44" r="5.2"/>
<circle class="st4" cx="194.7" cy="113.1" r="5.2"/>
<circle class="st1" cx="193.2" cy="78.6" r="5.2"/>
<circle class="st2" cx="69" cy="147.6" r="5.2"/>
<circle class="st3" cx="69" cy="44" r="5.2"/>
<circle class="st4" cx="140" cy="113.1" r="5.2"/>
<circle class="st1" cx="211.4" cy="78.6" r="5.2"/>
<circle class="st2" cx="107.8" cy="147.6" r="5.2"/>
<circle class="st3" cx="133.7" cy="44" r="5.2"/>
<circle class="st4" cx="172.5" cy="113.1" r="5.2"/>
<circle class="st1" cx="162.2" cy="78.6" r="5.2"/>
<circle class="st2" cx="69" cy="147.6" r="5.2"/>
<circle class="st3" cx="69" cy="44" r="5.2"/>
<circle class="st4" cx="110.4" cy="113.1" r="5.2"/>
<circle class="st1" cx="208.2" cy="78.6" r="5.2"/>
<circle class="st2" cx="69" cy="147.6" r="5.2"/>
<circle class="st3" cx="69" cy="44" r="5.2"/>
<circle class="st4" cx="133.2" cy="113.1" r="5.2"/>
<circle class="st1" cx="265.2" cy="78.6" r="5.2"/>
<circle class="st2" cx="85.3" cy="147.6" r="5.2"/>
<circle class="st3" cx="69" cy="44" r="5.2"/>
<circle class="st4" cx="183.4" cy="113.1" r="5.2"/>
<circle class="st1" cx="183.4" cy="78.6" r="5.2"/>
<circle class="st2" cx="69" cy="147.6" r="5.2"/>
<circle class="st3" cx="69" cy="44" r="5.2"/>
<circle class="st4" cx="101.7" cy="113.1" r="5.2"/>
<ellipse transform="matrix(0.1602 -0.9871 0.9871 0.1602 135.7696 316.678)" class="st1" cx="254" cy="78.6" rx="5.2" ry="5.2"/>
<circle class="st2" cx="86.4" cy="147.6" r="5.2"/>
<circle class="st3" cx="75.9" cy="44" r="5.2"/>
<circle class="st4" cx="145.8" cy="113.1" r="5.2"/>
<circle class="st1" cx="233.5" cy="78.6" r="5.2"/>
<circle class="st2" cx="87.2" cy="147.6" r="5.2"/>
<circle class="st3" cx="69" cy="44" r="5.2"/>
<circle class="st4" cx="105.5" cy="113.1" r="5.2"/>
<circle class="st1" cx="182.6" cy="78.6" r="5.2"/>
<circle class="st2" cx="91.7" cy="147.6" r="5.2"/>
<circle class="st3" cx="91.7" cy="44" r="5.2"/>
<circle class="st4" cx="99.3" cy="113.1" r="5.2"/>
<circle class="st1" cx="243.7" cy="78.6" r="5.2"/>
<circle class="st2" cx="78.7" cy="147.6" r="5.2"/>
<circle class="st3" cx="69" cy="44" r="5.2"/>
<circle class="st4" cx="166.1" cy="113.1" r="5.2"/>
<circle class="st1" cx="224.3" cy="78.6" r="5.2"/>
<circle class="st2" cx="109.8" cy="147.6" r="5.2"/>
<circle class="st3" cx="85.3" cy="44" r="5.2"/>
<circle class="st4" cx="150.7" cy="113.1" r="5.2"/>
<circle class="st1" cx="281.5" cy="78.6" r="5.2"/>
<circle class="st2" cx="69" cy="147.6" r="5.2"/>
<circle class="st3" cx="69" cy="44" r="5.2"/>
<circle class="st4" cx="134.4" cy="113.1" r="5.2"/>
<circle class="st1" cx="236.3" cy="78.6" r="5.2"/>
<circle class="st2" cx="76.9" cy="147.6" r="5.2"/>
<circle class="st3" cx="69" cy="44" r="5.2"/>
<circle class="st4" cx="188.5" cy="113.1" r="5.2"/>
<circle class="st1" cx="209.5" cy="78.6" r="5.2"/>
<circle class="st2" cx="165.1" cy="147.6" r="5.2"/>
<circle class="st3" cx="120.8" cy="44" r="5.2"/>
<circle class="st4" cx="69" cy="113.1" r="5.2"/>
<circle class="st1" cx="187.3" cy="78.6" r="5.2"/>
<circle class="st2" cx="83.8" cy="147.6" r="5.2"/>
<circle class="st3" cx="83.8" cy="44" r="5.2"/>
<circle class="st4" cx="128.1" cy="113.1" r="5.2"/>
<circle class="st1" cx="211.4" cy="78.6" r="5.2"/>
<circle class="st2" cx="94.9" cy="147.6" r="5.2"/>
<circle class="st3" cx="81.9" cy="44" r="5.2"/>
<circle class="st4" cx="146.6" cy="113.1" r="5.2"/>
<circle class="st1" cx="170.5" cy="78.6" r="5.2"/>
<circle class="st2" cx="102.8" cy="147.6" r="5.2"/>
<circle class="st3" cx="109" cy="44" r="5.2"/>
<circle class="st4" cx="130.5" cy="113.1" r="5.2"/>
<circle class="st1" cx="143.6" cy="78.6" r="5.2"/>
<circle class="st2" cx="112.3" cy="147.6" r="5.2"/>
<circle class="st3" cx="100.3" cy="44" r="5.2"/>
<circle class="st4" cx="122" cy="113.1" r="5.2"/>
<circle class="st1" cx="188.5" cy="78.6" r="5.2"/>
<circle class="st2" cx="104.8" cy="147.6" r="5.2"/>
<circle class="st3" cx="116.8" cy="44" r="5.2"/>
<circle class="st4" cx="104.8" cy="113.1" r="5.2"/>
<circle class="st1" cx="210.2" cy="78.6" r="5.2"/>
<circle class="st2" cx="78.4" cy="147.6" r="5.2"/>
<circle class="st3" cx="78.4" cy="44" r="5.2"/>
<circle class="st4" cx="106.6" cy="113.1" r="5.2"/>
<circle class="st1" cx="227.5" cy="78.6" r="5.2"/>
<circle class="st2" cx="75.3" cy="147.6" r="5.2"/>
<circle class="st3" cx="81.7" cy="44" r="5.2"/>
<circle class="st4" cx="157.7" cy="113.1" r="5.2"/>
<circle class="st1" cx="146.6" cy="78.6" r="5.2"/>
<circle class="st2" cx="69" cy="147.6" r="5.2"/>
<circle class="st3" cx="69" cy="44" r="5.2"/>
<circle class="st4" cx="120.8" cy="113.1" r="5.2"/>
<circle class="st1" cx="196.1" cy="78.6" r="5.2"/>
<circle class="st2" cx="111.3" cy="147.6" r="5.2"/>
<circle class="st3" cx="83.1" cy="44" r="5.2"/>
<circle class="st4" cx="153.7" cy="113.1" r="5.2"/>
<circle class="st1" cx="179.9" cy="78.6" r="5.2"/>
<circle class="st2" cx="77.8" cy="147.6" r="5.2"/>
<circle class="st3" cx="82.3" cy="44" r="5.2"/>
<circle class="st4" cx="117.8" cy="113.1" r="5.2"/>
<circle class="st1" cx="175.8" cy="78.6" r="5.2"/>
<circle class="st2" cx="69" cy="147.6" r="5.2"/>
<circle class="st3" cx="78.7" cy="44" r="5.2"/>
<circle class="st4" cx="156.4" cy="113.1" r="5.2"/>
<circle class="st1" cx="181.9" cy="78.6" r="5.2"/>
<circle class="st2" cx="97.2" cy="147.6" r="5.2"/>
<circle class="st3" cx="104.3" cy="44" r="5.2"/>
<circle class="st4" cx="139.6" cy="113.1" r="5.2"/>
<circle class="st1" cx="161.1" cy="78.6" r="5.2"/>
<circle class="st2" cx="94.7" cy="147.6" r="5.2"/>
<circle class="st3" cx="99" cy="44" r="5.2"/>
<circle class="st4" cx="131.1" cy="113.1" r="5.2"/>
<circle class="st1" cx="176.1" cy="78.6" r="5.2"/>
<circle class="st2" cx="79.7" cy="147.6" r="5.2"/>
<circle class="st3" cx="90.4" cy="44" r="5.2"/>
<circle class="st4" cx="90.4" cy="113.1" r="5.2"/>
<circle class="st1" cx="250.2" cy="78.6" r="5.2"/>
<circle class="st2" cx="69" cy="147.6" r="5.2"/>
<circle class="st3" cx="69" cy="44" r="5.2"/>
<circle class="st4" cx="172.5" cy="113.1" r="5.2"/>
<circle class="st1" cx="212.4" cy="78.6" r="5.2"/>
<circle class="st2" cx="69" cy="147.6" r="5.2"/>
<circle class="st3" cx="69" cy="44" r="5.2"/>
<circle class="st4" cx="188.5" cy="113.1" r="5.2"/>
<circle class="st1" cx="172.5" cy="78.6" r="5.2"/>
<circle class="st2" cx="80.5" cy="147.6" r="5.2"/>
<circle class="st3" cx="92" cy="44" r="5.2"/>
<circle class="st4" cx="92" cy="113.1" r="5.2"/>
<circle class="st1" cx="152.6" cy="78.6" r="5.2"/>
<circle class="st2" cx="108.8" cy="147.6" r="5.2"/>
<circle class="st3" cx="92.9" cy="44" r="5.2"/>
<circle class="st4" cx="124.7" cy="113.1" r="5.2"/>
<circle class="st1" cx="228.2" cy="78.6" r="5.2"/>
<circle class="st2" cx="123.3" cy="147.6" r="5.2"/>
<circle class="st3" cx="119.5" cy="44" r="5.2"/>
<circle class="st4" cx="220.4" cy="113.1" r="5.2"/>
<circle class="st1" cx="236.9" cy="78.6" r="5.2"/>
<circle class="st2" cx="69" cy="147.6" r="5.2"/>
<circle class="st3" cx="77.4" cy="44" r="5.2"/>
<circle class="st4" cx="152.9" cy="113.1" r="5.2"/>
<circle class="st1" cx="202.1" cy="78.6" r="5.2"/>
<circle class="st2" cx="69" cy="147.6" r="5.2"/>
<circle class="st3" cx="69" cy="44" r="5.2"/>
<circle class="st4" cx="135.6" cy="113.1" r="5.2"/>
<circle class="st1" cx="212.9" cy="78.6" r="5.2"/>
<circle class="st2" cx="84.1" cy="147.6" r="5.2"/>
<circle class="st3" cx="91.7" cy="44" r="5.2"/>
<circle class="st4" cx="106.9" cy="113.1" r="5.2"/>
<circle class="st1" cx="178.1" cy="78.6" r="5.2"/>
<circle class="st2" cx="69" cy="147.6" r="5.2"/>
<circle class="st3" cx="77.4" cy="44" r="5.2"/>
<circle class="st4" cx="136.1" cy="113.1" r="5.2"/>
<circle class="st1" cx="273.4" cy="78.6" r="5.2"/>
<circle class="st2" cx="85.3" cy="147.6" r="5.2"/>
<circle class="st3" cx="93.5" cy="44" r="5.2"/>
<circle class="st4" cx="208" cy="113.1" r="5.2"/>
<circle class="st1" cx="304.4" cy="78.6" r="5.2"/>
<circle class="st2" cx="69" cy="147.6" r="5.2"/>
<circle class="st3" cx="78.4" cy="44" r="5.2"/>
<circle class="st4" cx="172.5" cy="113.1" r="5.2"/>
<rect x="17.6" y="7.9" class="st0" width="400" height="200"/>
<line class="st5" x1="69" y1="171" x2="69" y2="168.3"/>
<line class="st5" x1="131.1" y1="171" x2="131.1" y2="168.3"/>
<line class="st5" x1="193.2" y1="171" x2="193.2" y2="168.3"/>
<line class="st5" x1="255.4" y1="171" x2="255.4" y2="168.3"/>
<text transform="matrix(1 0 0 1 62.8534 179.5)" class="st6 st7 st8">0.0</text>
<text transform="matrix(1 0 0 1 124.9934 179.5)" class="st6 st7 st8">0.2</text>
<text transform="matrix(1 0 0 1 187.1334 179.5)" class="st6 st7 st8">0.4</text>
<text transform="matrix(1 0 0 1 249.2734 179.5)" class="st6 st7 st8">0.6</text>
<rect x="332.6" y="14.1" class="st9" width="17.3" height="17.3"/>
<rect x="332.6" y="31.4" class="st9" width="17.3" height="17.3"/>
<rect x="332.6" y="48.7" class="st9" width="17.3" height="17.3"/>
<rect x="332.6" y="66" class="st9" width="17.3" height="17.3"/>
<rect x="327.1" y="99.7" class="st9" width="38.6" height="44"/>
<rect x="332.6" y="121" class="st9" width="17.3" height="17.3"/>
<text transform="matrix(1 0 0 1 84.9999 195.924)" class="st10 st11">SCORE OF NATIONAL ANTHEM LYRICS</text>
<text transform="matrix(1 0 0 1 7.0503 49.2297)" class="st12 st10 st13">sad</text>
<text transform="matrix(1 0 0 1 7.0504 83.2598)" class="st14 st7 st13">positivity</text>
<text transform="matrix(1 0 0 1 7.0501 152.7504)" class="st15 st7 st13">anger</text>
<text transform="matrix(1 0 0 1 7.6011 118.2402)" class="st16 st7 st13">joy</text>
<text transform="matrix(1 0 0 1 128.5098 30.1022)" class="st17 st10 st13">Greenland</text>
<text transform="matrix(1 0 0 1 300.1201 70.1621)" class="st18 st10 st13">Malaysia</text>
<text transform="matrix(1 0 0 1 253.0904 106.1616)" class="st19 st10 st13">Brazil</text>
<text transform="matrix(1 0 0 1 172.9402 150.0741)" class="st20 st10 st13">Iran</text>
</svg>
