<?xml version="1.0" standalone="no"?>
<!DOCTYPE svg PUBLIC "-//W3C//DTD SVG 20010904//EN"
 "http://www.w3.org/TR/2001/REC-SVG-20010904/DTD/svg10.dtd">
<svg version="1.0" xmlns="http://www.w3.org/2000/svg"
 width="1920.000000pt" height="1080.000000pt" viewBox="0 0 1920.000000 1080.000000"
 preserveAspectRatio="xMidYMid meet">

<g transform="translate(0.000000,1080.000000) scale(0.100000,-0.100000)"
fill="#000000" stroke="none">
<path d="M5370 7697 c-17 -9 -26 -22 -28 -45 -2 -24 -8 -32 -23 -32 -10 0 -19
-7 -19 -15 0 -8 9 -15 20 -15 19 0 20 -7 20 -90 0 -73 3 -90 15 -90 12 0 15
17 15 89 l0 90 32 3 c46 4 49 28 3 28 -34 0 -36 2 -33 28 3 23 7 27 37 28 40
0 52 19 19 28 -30 8 -29 8 -58 -7z"/>
<path d="M4765 7690 c-8 -14 3 -30 21 -30 8 0 14 9 14 20 0 21 -24 28 -35 10z"/>
<path d="M5710 7574 c0 -69 5 -134 10 -145 13 -24 60 -26 60 -2 0 9 -3 13 -7
10 -3 -4 -12 -2 -20 4 -9 9 -13 44 -13 135 0 104 -2 124 -15 124 -13 0 -15
-21 -15 -126z"/>
<path d="M8090 7680 c0 -15 5 -20 18 -18 9 2 17 10 17 18 0 8 -8 16 -17 18
-13 2 -18 -3 -18 -18z"/>
<path d="M11070 7643 c0 -54 -1 -55 -18 -40 -25 23 -74 21 -105 -3 -43 -34
-46 -126 -5 -169 23 -26 84 -28 110 -4 17 15 18 15 18 0 0 -10 7 -17 15 -17
13 0 15 23 15 145 0 122 -2 145 -15 145 -12 0 -15 -13 -15 -57z m-15 -77 c25
-37 16 -95 -18 -120 -26 -19 -30 -19 -55 -5 -22 12 -28 23 -30 61 -4 65 10 88
53 88 26 0 39 -6 50 -24z"/>
<path d="M11320 7644 c0 -55 0 -55 -22 -40 -12 9 -36 16 -53 16 -78 0 -115
-130 -55 -190 24 -24 77 -26 108 -4 20 14 22 14 22 0 0 -9 7 -16 15 -16 13 0
15 23 15 145 0 122 -2 145 -15 145 -12 0 -15 -13 -15 -56z m-16 -76 c24 -34
20 -85 -9 -113 -29 -30 -45 -31 -76 -6 -19 15 -24 29 -24 64 0 24 6 51 14 60
20 25 76 22 95 -5z"/>
<path d="M15155 7690 c-8 -14 3 -30 21 -30 8 0 14 9 14 20 0 21 -24 28 -35 10z"/>
<path d="M15415 7690 c-8 -14 3 -30 21 -30 8 0 14 9 14 20 0 21 -24 28 -35 10z"/>
<path d="M4533 7663 c-7 -3 -13 -13 -13 -24 0 -10 -7 -19 -15 -19 -8 0 -15 -7
-15 -15 0 -8 7 -15 15 -15 12 0 15 -14 15 -68 0 -86 17 -114 66 -110 40 4 46
23 8 24 -35 1 -44 18 -44 92 l0 62 35 0 c24 0 35 5 35 15 0 10 -10 15 -34 15
-29 0 -35 4 -38 23 -2 14 -8 22 -15 20z"/>
<path d="M8633 7663 c-7 -3 -13 -13 -13 -23 0 -10 -9 -20 -21 -23 -23 -6 -17
-27 7 -27 11 0 14 -16 14 -71 0 -92 10 -109 60 -109 30 0 40 4 40 16 0 12 -6
15 -22 11 -37 -10 -48 10 -48 84 l0 69 35 0 c24 0 35 5 35 15 0 10 -10 15 -34
15 -29 0 -35 4 -38 23 -2 14 -8 22 -15 20z"/>
<path d="M11856 7663 c-3 -3 -6 -15 -6 -25 0 -11 -7 -18 -20 -18 -11 0 -20 -7
-20 -15 0 -8 9 -15 20 -15 18 0 20 -7 20 -79 0 -89 9 -104 62 -99 34 3 42 22
10 24 -9 1 -23 2 -29 3 -9 1 -13 23 -13 76 l0 75 30 0 c20 0 30 5 30 15 0 10
-10 15 -30 15 -23 0 -30 5 -30 19 0 21 -13 34 -24 24z"/>
<path d="M14243 7663 c-7 -3 -13 -13 -13 -23 0 -10 -9 -20 -21 -23 -23 -6 -17
-27 7 -27 11 0 14 -16 14 -71 0 -92 10 -109 60 -109 30 0 40 4 40 16 0 12 -6
15 -22 11 -37 -10 -48 10 -48 84 l0 69 35 0 c24 0 35 5 35 15 0 10 -10 15 -34
15 -29 0 -35 4 -38 23 -2 14 -8 22 -15 20z"/>
<path d="M15277 7663 c-4 -3 -7 -15 -7 -25 0 -11 -7 -18 -20 -18 -11 0 -20 -7
-20 -15 0 -8 9 -15 20 -15 18 0 20 -7 20 -79 0 -56 4 -82 14 -90 19 -16 78
-10 84 8 3 10 -1 12 -19 8 -38 -10 -49 9 -49 84 l0 68 32 3 c46 4 49 28 4 28
-32 0 -36 3 -36 25 0 24 -10 32 -23 18z"/>
<path d="M7843 7631 c-4 -15 -12 -18 -46 -14 -34 4 -46 1 -61 -16 -24 -26 -25
-80 -2 -96 15 -12 15 -13 0 -19 -12 -5 -15 -14 -11 -35 4 -20 2 -31 -8 -35
-19 -7 -19 -60 0 -76 8 -6 32 -14 54 -17 81 -11 140 41 106 93 -12 18 -25 24
-67 26 -41 2 -54 7 -56 21 -3 13 4 17 30 17 18 0 44 7 57 16 19 14 22 23 19
58 -3 24 1 50 9 62 12 19 12 22 -3 28 -10 4 -17 0 -21 -13z m-34 -41 c44 -23
31 -80 -19 -80 -59 0 -61 74 -2 89 2 1 11 -3 21 -9z m41 -204 c0 -26 -16 -36
-60 -36 -41 0 -60 10 -60 29 0 27 9 31 67 31 49 0 53 -2 53 -24z"/>
<path d="M3730 7515 c0 -85 3 -105 15 -105 11 0 15 18 17 82 3 76 5 83 27 95
17 8 31 9 43 2 15 -8 18 -23 18 -94 0 -69 3 -85 15 -85 11 0 15 13 16 58 1 31
4 68 8 82 9 31 48 52 73 39 15 -8 18 -23 18 -94 0 -69 3 -85 15 -85 22 0 22
172 -1 194 -20 20 -63 20 -92 0 -20 -14 -24 -14 -38 0 -20 20 -68 21 -87 1
-13 -13 -16 -13 -21 0 -3 8 -10 15 -16 15 -6 0 -10 -40 -10 -105z"/>
<path d="M4109 7607 c-40 -30 -51 -104 -24 -156 16 -33 33 -41 80 -41 47 0 64
8 80 41 41 79 -3 169 -82 169 -21 0 -45 -6 -54 -13z m105 -39 c24 -34 20 -85
-9 -113 -13 -14 -31 -25 -40 -25 -28 0 -65 46 -65 82 0 49 24 78 65 78 24 0
39 -7 49 -22z"/>
<path d="M4326 7604 c-36 -36 -10 -86 51 -99 37 -8 56 -26 47 -48 -9 -25 -41
-30 -75 -13 -38 19 -56 11 -33 -15 24 -27 97 -26 124 1 40 40 24 74 -46 98
-35 13 -50 24 -52 39 -4 27 25 37 63 23 34 -13 55 -2 30 17 -25 18 -90 17
-109 -3z"/>
<path d="M4770 7504 c0 -123 -8 -154 -41 -154 -26 0 -20 -24 7 -28 10 -1 28 4
39 12 18 13 20 28 23 150 3 119 2 136 -12 136 -14 0 -16 -17 -16 -116z"/>
<path d="M4885 7595 c-21 -20 -25 -34 -25 -80 0 -74 28 -105 93 -105 64 0 92
33 92 107 0 48 -4 58 -28 79 -39 33 -99 33 -132 -1z m115 -21 c8 -8 13 -36 13
-61 0 -36 -5 -50 -23 -65 -27 -22 -67 -17 -87 9 -18 24 -16 98 3 117 20 20 78
21 94 0z"/>
<path d="M5090 7611 c0 -5 17 -54 39 -109 33 -85 37 -104 27 -124 -8 -16 -22
-24 -44 -26 -20 -2 -32 -8 -29 -15 6 -19 52 -19 75 0 20 17 126 272 117 281
-14 14 -33 -15 -59 -87 -15 -44 -30 -81 -32 -81 -1 0 -17 38 -35 85 -18 48
-38 85 -46 85 -7 0 -13 -4 -13 -9z"/>
<path d="M5470 7543 c0 -100 13 -127 64 -131 25 -2 44 2 57 14 17 16 19 16 19
1 0 -10 7 -17 15 -17 12 0 15 18 15 105 0 87 -3 105 -15 105 -12 0 -15 -15
-15 -75 0 -62 -4 -79 -20 -95 -51 -51 -90 -9 -90 97 0 58 -3 73 -15 73 -12 0
-15 -15 -15 -77z"/>
<path d="M7283 7608 c-13 -6 -23 -17 -23 -25 0 -16 0 -16 40 1 36 15 66 11 74
-10 6 -16 -31 -44 -59 -44 -55 0 -86 -67 -49 -104 20 -21 78 -21 95 0 11 14
13 14 21 0 5 -9 21 -16 35 -16 25 0 25 1 10 18 -12 13 -17 37 -17 85 0 54 -4
71 -20 87 -22 22 -71 26 -107 8z m97 -102 c0 -8 -4 -26 -10 -40 -17 -47 -90
-43 -90 5 0 21 12 29 54 40 45 10 46 10 46 -5z"/>
<path d="M7480 7515 c0 -87 3 -105 15 -105 12 0 15 15 15 73 0 82 16 110 66
110 37 0 44 -17 44 -105 0 -63 3 -78 15 -78 22 0 21 156 -1 188 -19 27 -78 30
-106 5 -17 -15 -18 -15 -18 0 0 10 -7 17 -15 17 -12 0 -15 -18 -15 -105z"/>
<path d="M7930 7515 c0 -87 3 -105 15 -105 12 0 15 14 15 68 0 81 17 112 61
112 19 0 29 5 29 15 0 21 -48 20 -72 -2 -17 -15 -18 -15 -18 0 0 10 -7 17 -15
17 -12 0 -15 -18 -15 -105z"/>
<path d="M8090 7515 c0 -87 3 -105 15 -105 12 0 15 18 15 105 0 87 -3 105 -15
105 -12 0 -15 -18 -15 -105z"/>
<path d="M8223 7605 c-47 -33 -53 -126 -10 -172 27 -30 94 -31 128 -4 33 27
17 37 -26 17 -46 -22 -88 -5 -93 37 l-3 27 70 0 71 0 0 33 c0 64 -81 101 -137
62z m85 -21 c12 -8 22 -24 22 -35 0 -16 -7 -19 -56 -19 -52 0 -55 2 -52 22 2
12 14 28 28 35 32 16 31 16 58 -3z"/>
<path d="M8428 7608 c-43 -36 -25 -82 39 -101 57 -17 71 -49 29 -68 -21 -10
-30 -9 -52 6 -20 13 -29 14 -38 5 -29 -29 78 -55 125 -30 13 7 19 21 19 44 0
39 -11 50 -66 68 -27 9 -40 19 -42 35 -4 27 25 38 62 23 35 -13 36 -13 36 4 0
27 -83 37 -112 14z"/>
<path d="M10520 7600 c-37 -37 -19 -72 50 -95 37 -12 50 -22 50 -36 0 -31 -41
-44 -78 -25 -38 20 -42 20 -42 1 0 -36 104 -49 133 -17 39 43 13 90 -58 107
-47 11 -58 37 -24 55 16 9 28 9 50 -1 34 -14 48 -6 29 16 -19 22 -86 19 -110
-5z"/>
<path d="M10721 7604 c-16 -11 -19 -20 -12 -27 7 -7 14 -7 23 0 22 17 56 21
74 9 26 -20 12 -38 -41 -55 -64 -21 -87 -56 -62 -95 14 -20 26 -26 55 -26 21
0 43 5 50 12 9 9 15 9 24 0 14 -14 48 -16 48 -3 0 5 -7 11 -15 15 -11 4 -15
23 -15 79 0 59 -4 77 -18 90 -24 22 -81 22 -111 1z m99 -111 c0 -53 -67 -86
-89 -44 -13 24 4 49 44 60 44 14 45 13 45 -16z"/>
<path d="M11435 7588 c-24 -28 -27 -38 -23 -87 6 -67 30 -91 93 -91 45 0 84
28 69 51 -5 9 -10 8 -19 -4 -6 -9 -23 -19 -38 -22 -20 -5 -32 -1 -51 19 -46
45 -36 56 50 56 l77 0 -6 38 c-8 47 -38 72 -87 72 -31 0 -44 -6 -65 -32z m106
-7 c4 -3 10 -16 14 -28 6 -22 4 -23 -54 -23 -68 0 -74 8 -36 46 24 24 56 26
76 5z"/>
<path d="M11647 7602 c-35 -38 -13 -82 48 -96 58 -14 73 -48 31 -67 -19 -9
-31 -8 -57 5 -40 20 -61 6 -28 -18 32 -22 101 -21 122 2 37 40 17 81 -50 102
-53 17 -67 42 -33 60 17 9 29 9 51 -1 35 -14 52 -3 25 17 -28 20 -89 18 -109
-4z"/>
<path d="M13440 7515 c0 -85 3 -105 15 -105 11 0 15 18 17 82 3 76 5 83 27 95
17 8 31 9 43 2 15 -8 18 -23 18 -94 0 -69 3 -85 15 -85 11 0 15 13 16 58 1 31
4 68 8 82 9 31 48 52 73 39 15 -8 18 -23 18 -94 0 -69 3 -85 15 -85 22 0 22
172 -1 194 -20 20 -63 20 -92 0 -20 -14 -24 -14 -38 0 -20 20 -68 21 -87 1
-13 -13 -16 -13 -21 0 -3 8 -10 15 -16 15 -6 0 -10 -40 -10 -105z"/>
<path d="M13819 7607 c-40 -30 -51 -104 -24 -156 16 -33 33 -41 80 -41 47 0
64 8 80 41 41 79 -3 169 -82 169 -21 0 -45 -6 -54 -13z m105 -39 c24 -34 20
-85 -9 -113 -13 -14 -31 -25 -40 -25 -28 0 -65 46 -65 82 0 49 24 78 65 78 24
0 39 -7 49 -22z"/>
<path d="M14038 7608 c-43 -36 -25 -82 39 -101 57 -17 71 -49 29 -68 -21 -10
-30 -9 -52 6 -20 13 -29 14 -38 5 -29 -29 78 -55 125 -30 13 7 19 21 19 44 0
39 -11 50 -66 68 -27 9 -40 19 -42 35 -4 27 25 38 62 23 35 -13 36 -13 36 4 0
27 -83 37 -112 14z"/>
<path d="M14480 7475 c0 -122 2 -145 15 -145 11 0 15 12 15 50 0 48 1 50 20
40 12 -6 37 -10 57 -8 49 4 76 42 76 103 0 62 -27 99 -77 103 -25 2 -44 -2
-57 -14 -17 -16 -19 -16 -19 -1 0 10 -7 17 -15 17 -13 0 -15 -23 -15 -145z
m140 96 c14 -28 12 -94 -4 -116 -8 -11 -26 -18 -46 -18 -20 0 -38 7 -46 18
-19 26 -18 94 3 117 22 25 79 24 93 -1z"/>
<path d="M14743 7596 c-24 -21 -28 -31 -28 -79 0 -74 28 -107 92 -107 62 0 93
32 93 95 0 77 -30 114 -92 115 -25 0 -46 -8 -65 -24z m111 -28 c19 -27 21 -88
4 -111 -21 -27 -61 -31 -89 -8 -19 15 -24 29 -24 64 0 24 6 51 14 60 20 25 76
22 95 -5z"/>
<path d="M14967 7602 c-35 -38 -13 -82 48 -96 58 -14 73 -48 31 -67 -19 -9
-31 -8 -57 5 -40 20 -61 6 -28 -18 32 -22 101 -21 122 2 37 40 17 81 -50 102
-53 17 -67 42 -33 60 17 9 29 9 51 -1 35 -14 52 -3 25 17 -28 20 -89 18 -109
-4z"/>
<path d="M15160 7515 c0 -87 3 -105 15 -105 12 0 15 18 15 105 0 87 -3 105
-15 105 -12 0 -15 -18 -15 -105z"/>
<path d="M15420 7515 c0 -87 3 -105 15 -105 12 0 15 18 15 105 0 87 -3 105
-15 105 -12 0 -15 -18 -15 -105z"/>
<path d="M15500 7613 c0 -3 16 -50 37 -105 31 -83 39 -98 58 -98 19 0 28 15
59 96 40 108 42 114 22 114 -8 0 -25 -32 -41 -77 -15 -43 -31 -82 -35 -86 -4
-4 -22 31 -40 78 -19 49 -39 85 -46 85 -8 0 -14 -3 -14 -7z"/>
<path d="M15755 7588 c-24 -28 -27 -38 -23 -87 6 -67 30 -91 93 -91 45 0 84
28 69 51 -5 9 -10 8 -19 -4 -6 -9 -23 -19 -38 -22 -20 -5 -32 -1 -51 19 -46
45 -36 56 50 56 l77 0 -6 38 c-8 47 -38 72 -87 72 -31 0 -44 -6 -65 -32z m106
-7 c4 -3 10 -16 14 -28 6 -22 4 -23 -54 -23 -68 0 -74 8 -36 46 24 24 56 26
76 5z"/>
<path d="M4566 7008 c-549 -51 -1065 -424 -1299 -939 -195 -427 -191 -928 10
-1359 150 -323 450 -622 774 -774 386 -180 835 -203 1229 -60 348 125 649 369
843 684 119 194 208 458 224 668 3 39 9 72 13 72 4 0 10 -33 13 -72 16 -210
106 -476 227 -673 114 -186 297 -376 482 -499 476 -317 1070 -362 1587 -120
320 150 623 450 770 765 78 166 136 373 148 527 3 39 9 72 13 72 4 0 10 -33
13 -72 25 -329 193 -688 440 -945 241 -249 516 -401 852 -468 159 -31 302 -40
450 -25 403 38 723 188 1006 470 191 190 310 382 393 631 41 122 65 236 73
337 3 39 9 72 13 72 4 0 10 -33 13 -72 12 -154 67 -354 144 -518 150 -323 451
-624 773 -773 181 -84 350 -129 551 -148 285 -26 605 34 856 160 311 156 588
436 738 744 261 540 203 1180 -153 1667 -89 122 -271 295 -402 382 -311 207
-670 300 -1035 268 -719 -62 -1303 -580 -1450 -1285 -9 -44 -19 -113 -22 -152
-6 -79 -23 -100 -23 -30 0 54 -24 188 -50 286 -145 528 -563 958 -1085 1117
-170 52 -287 68 -480 68 -154 -1 -198 -5 -305 -27 -157 -33 -257 -66 -386
-127 -315 -151 -593 -422 -749 -730 -87 -172 -165 -449 -165 -587 0 -24 -4
-43 -10 -43 -5 0 -10 19 -10 43 0 59 -26 201 -56 305 -138 477 -492 869 -950
1051 -599 239 -1272 107 -1727 -338 -100 -97 -194 -213 -257 -316 -122 -198
-211 -462 -227 -672 -3 -40 -9 -73 -13 -73 -4 0 -10 33 -13 73 -16 209 -106
475 -227 672 -112 183 -297 375 -474 493 -178 120 -319 182 -519 231 -193 48
-348 59 -561 39z m552 -1205 c5 -17 -26 -29 -40 -15 -6 6 -7 15 -3 22 9 14 37
9 43 -7z m102 -113 c0 -109 2 -130 15 -130 17 0 20 -26 5 -35 -6 -4 -22 1 -35
9 -25 16 -25 19 -25 151 0 128 1 135 20 135 19 0 20 -7 20 -130z m6230 0 c0
-109 2 -130 15 -130 17 0 20 -26 5 -35 -6 -4 -22 1 -35 9 -25 16 -25 19 -25
151 0 128 1 135 20 135 19 0 20 -7 20 -130z m710 -15 c0 -138 -1 -145 -20
-145 -11 0 -20 5 -20 11 0 8 -4 8 -15 -1 -8 -6 -31 -12 -51 -13 -55 -2 -84 37
-84 109 0 45 4 59 25 79 27 27 91 35 113 13 9 -9 12 0 12 40 0 45 3 52 20 52
19 0 20 -7 20 -145z m-7728 105 c21 -26 18 -67 -7 -86 -11 -8 -10 -12 6 -22
29 -18 40 -56 28 -92 -15 -42 -35 -50 -123 -50 l-76 0 0 141 0 141 76 -4 c66
-3 79 -7 96 -28z m6051 2 c16 -16 18 -25 10 -33 -9 -9 -18 -6 -39 10 -30 23
-61 27 -98 10 -34 -16 -50 -59 -44 -121 6 -63 32 -88 89 -88 42 0 69 26 69 67
0 20 -5 23 -40 23 -29 0 -40 4 -40 15 0 12 13 15 55 15 l55 0 0 -75 c0 -60 -3
-75 -15 -75 -8 0 -15 7 -15 17 0 14 -2 14 -20 -2 -25 -23 -91 -23 -126 -1 -72
48 -71 188 2 245 24 19 38 22 82 19 37 -3 60 -11 75 -26z m3797 -121 c0 -120
1 -129 20 -134 11 -3 20 -10 20 -15 0 -15 -22 -20 -47 -11 -22 8 -23 12 -23
149 0 118 2 140 15 140 13 0 15 -21 15 -129z m748 112 c5 -17 -26 -29 -40 -15
-6 6 -7 15 -3 22 9 14 37 9 43 -7z m-1252 -100 c20 -60 40 -111 44 -115 3 -5
24 43 46 105 36 101 43 112 65 112 l24 0 3 -137 c2 -132 2 -138 -17 -138 -19
0 -21 8 -23 106 l-3 106 -36 -103 c-28 -81 -41 -105 -56 -107 -17 -3 -26 14
-61 110 l-41 113 0 -112 c-1 -94 -4 -113 -16 -113 -13 0 -15 22 -15 140 l0
140 24 0 c21 0 28 -11 62 -107z m-9226 50 c0 -15 1 -15 18 0 24 22 72 23 72 2
0 -10 -10 -15 -29 -15 -41 0 -53 -21 -59 -105 -3 -55 -8 -75 -18 -75 -11 0
-14 23 -14 105 0 87 3 105 15 105 8 0 15 -7 15 -17z m264 -5 c11 -15 16 -45
16 -89 0 -50 4 -68 15 -73 8 -3 15 -10 15 -16 0 -13 -47 -13 -55 -1 -3 6 -20
4 -41 -5 -51 -21 -88 -2 -92 47 -4 42 9 55 69 72 33 10 45 18 47 35 3 19 -1
22 -31 22 -19 0 -40 -7 -47 -15 -10 -12 -16 -13 -27 -3 -13 10 -12 15 7 30 33
27 104 24 124 -4z m216 9 c0 -8 -25 -47 -56 -88 l-55 -74 55 -3 c41 -2 56 -7
56 -17 0 -12 -17 -15 -80 -15 -44 0 -80 4 -80 9 0 5 27 46 60 90 l60 81 -55 0
c-42 0 -55 3 -55 15 0 12 15 15 75 15 56 0 75 -3 75 -13z m80 -92 c0 -87 -3
-105 -15 -105 -12 0 -15 18 -15 105 0 87 3 105 15 105 12 0 15 -18 15 -105z
m5490 89 c0 -14 1 -14 16 0 8 9 29 16 45 16 24 0 30 -4 27 -17 -2 -13 -11 -17
-30 -15 -40 5 -58 -29 -58 -110 0 -54 -3 -68 -15 -68 -12 0 -15 18 -15 105 0
87 3 105 15 105 8 0 15 -7 15 -16z m269 -1 c12 -10 24 -35 28 -55 l6 -38 -77
0 c-64 0 -76 -3 -76 -17 0 -45 81 -73 110 -38 9 11 16 13 24 5 7 -7 4 -17 -12
-32 -30 -30 -94 -29 -127 2 -45 42 -40 141 8 175 29 20 90 19 116 -2z m230 -9
c12 -15 21 -40 21 -55 l0 -29 -69 0 c-39 0 -73 -5 -76 -10 -4 -6 1 -22 9 -35
19 -29 75 -35 96 -11 17 21 42 9 30 -14 -16 -31 -72 -44 -113 -26 -44 18 -57
41 -57 104 0 68 31 102 94 102 36 0 48 -5 65 -26z m101 10 c0 -14 2 -14 22 0
24 17 75 21 95 8 21 -13 33 -62 33 -133 0 -62 -2 -69 -20 -69 -17 0 -19 8 -22
88 l-3 87 -35 3 c-48 5 -60 -16 -60 -105 0 -66 -2 -73 -20 -73 -19 0 -20 7
-20 105 0 87 3 105 15 105 8 0 15 -7 15 -16z m452 -1 c14 -13 18 -31 18 -88 0
-56 4 -74 15 -79 8 -3 15 -10 15 -16 0 -13 -47 -13 -55 0 -4 7 -11 8 -18 1
-12 -9 -39 -14 -69 -12 -47 3 -66 79 -25 105 12 7 35 17 52 21 39 9 55 23 48
41 -7 19 -62 18 -85 -2 -16 -16 -18 -15 -24 0 -15 40 90 64 128 29z m118 0 c0
-15 1 -15 18 0 10 10 34 17 52 17 58 0 70 -21 70 -122 0 -72 -3 -88 -15 -88
-12 0 -15 15 -15 78 0 42 -4 83 -9 90 -5 8 -22 12 -42 10 -44 -4 -59 -34 -59
-115 0 -49 -3 -63 -15 -63 -12 0 -15 18 -15 105 0 87 3 105 15 105 8 0 15 -7
15 -17z m-4080 -143 c0 -133 -1 -140 -20 -140 -19 0 -20 7 -20 133 0 74 3 137
7 140 3 4 12 7 20 7 10 0 13 -30 13 -140z m6474 108 c11 -15 16 -45 16 -89 0
-50 4 -68 15 -73 8 -3 15 -10 15 -16 0 -13 -47 -13 -55 -1 -3 6 -20 4 -41 -5
-51 -21 -88 -2 -92 47 -4 42 9 55 69 72 33 10 45 18 47 35 3 19 -1 22 -31 22
-19 0 -40 -7 -47 -15 -10 -12 -16 -13 -27 -3 -13 10 -12 15 7 30 33 27 104 24
124 -4z m333 -8 c7 -14 13 -53 13 -87 0 -35 4 -63 10 -63 6 0 10 -7 10 -15 0
-17 -31 -20 -46 -5 -7 7 -20 5 -41 -5 -38 -19 -78 -7 -95 29 -16 37 10 72 70
89 35 10 47 19 47 33 0 23 -43 31 -76 14 -32 -18 -47 3 -17 24 15 11 38 16 68
14 36 -2 47 -8 57 -28z m123 -56 l34 -86 30 82 c26 73 47 102 62 88 10 -11
-98 -268 -119 -283 -28 -20 -77 -20 -77 0 0 10 10 15 30 15 23 0 33 6 42 26
13 27 8 46 -51 192 -20 50 -20 52 -2 52 14 0 26 -21 51 -86z m289 77 c8 -5 11
-16 7 -27 -5 -13 -9 -15 -18 -6 -17 17 -75 15 -82 -3 -6 -16 29 -45 54 -45 50
0 79 -69 44 -104 -38 -39 -166 -9 -133 31 10 11 15 11 29 -2 22 -20 79 -20 86
0 9 22 -11 42 -48 49 -94 19 -89 116 6 116 23 0 47 -4 55 -9z m111 -96 c0 -87
-3 -105 -15 -105 -12 0 -15 18 -15 105 0 87 3 105 15 105 12 0 15 -18 15 -105z
m204 83 c11 -15 16 -45 16 -89 0 -50 4 -68 15 -73 8 -3 15 -10 15 -16 0 -13
-47 -13 -55 -1 -3 6 -20 4 -41 -5 -51 -21 -88 -2 -92 47 -4 42 9 55 69 72 33
10 45 18 47 35 3 19 -1 22 -31 22 -19 0 -40 -7 -47 -15 -10 -12 -16 -13 -27
-3 -13 10 -12 15 7 30 33 27 104 24 124 -4z m-7424 -50 c0 -9 3 -9 12 0 12 12
60 17 71 6 13 -13 -5 -31 -27 -27 -41 8 -56 -20 -56 -103 0 -67 -2 -74 -20
-74 -19 0 -20 7 -20 98 0 54 3 102 7 105 11 11 33 8 33 -5z m252 -5 c14 -13
18 -31 18 -88 0 -56 4 -74 15 -79 8 -3 15 -10 15 -16 0 -13 -47 -13 -55 0 -4
7 -11 8 -18 1 -12 -9 -39 -14 -69 -12 -47 3 -66 79 -25 105 12 7 35 17 52 21
39 9 55 23 48 41 -7 19 -62 18 -85 -2 -16 -16 -18 -15 -24 0 -15 40 90 64 128
29z m118 0 c0 -15 1 -15 18 0 10 10 34 17 52 17 58 0 70 -21 70 -122 0 -72 -3
-88 -15 -88 -12 0 -15 15 -15 78 0 42 -4 83 -9 90 -5 8 -22 12 -42 10 -44 -4
-59 -34 -59 -115 0 -49 -3 -63 -15 -63 -12 0 -15 18 -15 105 0 87 3 105 15
105 8 0 15 -7 15 -17z"/>
<path d="M12021 5696 c-21 -26 -25 -83 -7 -111 21 -32 80 -36 96 -6 15 30 12
97 -6 115 -19 20 -68 21 -83 2z"/>
<path d="M4300 5735 c0 -45 0 -45 36 -45 48 0 74 16 74 45 0 29 -26 45 -74 45
-36 0 -36 0 -36 -45z"/>
<path d="M4300 5610 l0 -50 49 0 c53 0 81 17 81 50 0 33 -28 50 -81 50 l-49 0
0 -50z"/>
<path d="M4748 5627 c-43 -10 -59 -40 -35 -64 22 -22 65 -9 73 21 11 44 3 53
-38 43z"/>
<path d="M10766 5694 c-31 -31 -20 -44 39 -44 46 0 55 3 55 18 0 41 -63 58
-94 26z"/>
<path d="M10986 5689 c-21 -31 -12 -39 45 -39 49 0 50 1 47 28 -3 23 -8 27
-40 30 -28 2 -40 -2 -52 -19z"/>
<path d="M11600 5628 c-44 -12 -63 -29 -54 -51 8 -22 39 -31 63 -18 17 9 39
67 29 75 -1 2 -19 -1 -38 -6z"/>
<path d="M14098 5597 c-43 -10 -59 -40 -35 -64 22 -22 65 -9 73 21 11 44 3 53
-38 43z"/>
<path d="M14425 5596 c-32 -9 -40 -16 -40 -35 0 -36 27 -48 59 -28 18 12 26
26 26 47 0 17 -1 30 -2 29 -2 0 -21 -6 -43 -13z"/>
<path d="M15158 5597 c-43 -10 -59 -40 -35 -64 22 -22 65 -9 73 21 11 44 3 53
-38 43z"/>
<path d="M8000 5538 c-44 -12 -63 -29 -54 -51 8 -22 39 -31 63 -18 17 9 39 67
29 75 -1 2 -19 -1 -38 -6z"/>
</g>
</svg>
