<?xml version="1.0" standalone="no"?>
<!DOCTYPE svg PUBLIC "-//W3C//DTD SVG 20010904//EN"
 "http://www.w3.org/TR/2001/REC-SVG-20010904/DTD/svg10.dtd">
<svg version="1.0" xmlns="http://www.w3.org/2000/svg"
 width="1080.000000pt" height="1920.000000pt" viewBox="0 0 1080.000000 1920.000000"
 preserveAspectRatio="xMidYMid meet">

<g transform="translate(0.000000,1920.000000) scale(0.100000,-0.100000)"
fill="#000000" stroke="none">
<path d="M2590 14833 c-1178 -92 -2147 -944 -2379 -2092 -43 -213 -54 -350
-48 -600 8 -337 62 -602 183 -903 241 -600 703 -1094 1289 -1378 356 -172 669
-247 1085 -257 255 -6 395 6 631 58 697 151 1323 609 1689 1235 197 337 326
750 347 1107 3 59 9 107 13 107 4 0 10 -48 13 -107 32 -557 299 -1155 708
-1587 696 -735 1754 -1002 2719 -686 599 196 1110 604 1431 1142 248 416 369
859 369 1348 0 318 -47 590 -150 882 -47 131 -164 377 -231 483 -282 452 -682
804 -1150 1016 -165 75 -269 111 -443 155 -683 172 -1385 69 -1994 -294 -331
-197 -666 -527 -870 -855 -202 -324 -327 -676 -376 -1052 -9 -65 -16 -149 -16
-185 0 -46 -3 -61 -10 -50 -5 8 -10 42 -10 75 0 85 -35 309 -69 450 -45 182
-104 343 -190 520 -309 630 -829 1091 -1506 1333 -84 31 -312 87 -425 106
-180 30 -441 42 -610 29z m288 -1531 c-2 -23 -8 -27 -33 -27 -24 0 -31 5 -33
24 -5 32 23 54 50 40 13 -7 18 -19 16 -37z m1056 35 c32 -24 10 -45 -47 -43
-44 1 -53 -2 -63 -22 -6 -13 -9 -32 -7 -43 4 -16 15 -19 59 -19 51 0 54 -1 54
-25 0 -24 -3 -25 -55 -25 l-55 0 0 -150 0 -150 -30 0 -30 0 0 149 0 150 -27 3
c-20 2 -28 9 -28 23 0 14 8 21 28 23 24 3 27 7 27 40 0 42 22 79 54 92 32 13
100 12 120 -3z m506 -212 l5 -220 28 -3 c22 -3 28 -8 25 -25 -6 -46 -89 -26
-107 25 -12 34 -15 430 -4 442 4 4 16 6 28 4 19 -3 20 -11 25 -223z m3388 -22
l2 -243 -30 0 c-23 0 -30 4 -30 20 0 20 0 20 -29 -1 -40 -29 -107 -35 -151
-12 -47 24 -71 71 -77 147 -10 117 49 196 145 196 45 0 97 -21 105 -42 3 -7 6
28 6 78 1 50 4 94 8 98 4 4 16 6 28 4 19 -3 20 -10 23 -245z m412 2 l0 -245
-25 0 c-20 0 -25 5 -25 26 l0 26 -30 -26 c-57 -48 -138 -46 -189 5 -73 73 -60
250 23 300 45 28 114 25 160 -6 l36 -24 0 94 c0 95 0 95 25 95 l25 0 0 -245z
m-5770 145 l0 -40 55 0 c52 0 55 -1 55 -25 0 -24 -3 -25 -55 -25 l-55 0 0
-114 c0 -91 3 -118 16 -130 18 -18 38 -20 64 -6 15 8 21 6 31 -11 9 -17 8 -23
-2 -30 -26 -17 -62 -22 -98 -13 -56 14 -71 54 -71 192 l0 112 -31 0 c-26 0
-30 3 -27 23 2 16 11 23 31 25 23 3 27 8 27 37 0 24 5 35 18 38 38 10 42 7 42
-33z m6640 0 l0 -39 58 -3 c49 -3 57 -6 57 -23 0 -17 -8 -20 -57 -23 l-58 -3
0 -107 c0 -81 4 -113 16 -130 16 -24 44 -28 74 -12 15 8 20 6 25 -11 10 -31
-10 -44 -66 -44 -43 0 -54 4 -75 28 -23 26 -24 35 -24 153 l0 124 -30 0 c-25
0 -30 4 -30 25 0 21 5 25 30 25 27 0 30 3 30 34 0 33 6 39 43 45 4 0 7 -17 7
-39z m-7960 -66 l0 -26 31 26 c46 39 111 37 150 -5 24 -26 30 -28 35 -15 10
25 58 46 104 46 33 0 48 -6 71 -29 l29 -29 0 -146 0 -146 -25 0 -25 0 0 128
c0 151 -8 172 -69 172 -27 0 -44 -7 -62 -26 -22 -24 -24 -35 -28 -150 -3 -123
-3 -124 -27 -124 l-24 0 0 123 c0 149 -8 171 -66 175 -32 2 -44 -2 -64 -23
-23 -25 -25 -35 -28 -151 -4 -124 -4 -124 -28 -124 l-24 0 0 175 0 175 25 0
c20 0 25 -5 25 -26z m760 3 c52 -34 71 -75 71 -152 0 -87 -22 -132 -82 -163
-34 -18 -55 -22 -92 -19 -60 5 -95 30 -125 88 -45 86 -14 216 61 253 48 24
127 21 167 -7z m359 2 c32 -19 32 -21 16 -39 -16 -18 -19 -18 -41 -3 -31 20
-96 22 -118 4 -37 -31 -6 -74 65 -87 76 -15 119 -54 119 -109 0 -86 -108 -130
-208 -85 -49 22 -62 45 -39 68 15 15 18 14 40 -6 29 -27 82 -37 120 -23 22 9
27 17 27 45 0 37 -10 44 -99 66 -60 16 -91 49 -91 99 0 32 6 44 31 65 40 34
126 37 178 5z m601 -198 c0 -214 -1 -221 -23 -246 -15 -18 -35 -28 -62 -31
-48 -6 -66 4 -59 32 4 16 12 19 33 16 21 -3 33 2 45 19 13 20 16 55 16 226 l0
203 25 0 25 0 0 -219z m340 200 c88 -47 108 -209 36 -290 -68 -77 -210 -62
-255 28 -27 52 -28 151 -3 201 37 75 142 104 222 61z m236 -101 c24 -63 49
-126 55 -140 10 -23 15 -13 63 115 48 128 55 140 79 143 15 2 27 -1 27 -5 0
-5 -36 -103 -81 -218 -50 -130 -91 -220 -107 -237 -44 -48 -147 -51 -140 -5 3
19 8 22 41 19 45 -4 71 14 87 62 9 27 2 50 -55 196 -36 91 -65 171 -65 178 0
9 10 12 26 10 24 -3 31 -15 70 -118z m594 -9 c0 -115 2 -131 21 -155 27 -34
77 -35 116 -2 27 24 28 27 33 153 l5 128 28 3 27 3 0 -175 0 -176 -25 0 c-20
0 -25 5 -25 27 l0 27 -31 -30 c-26 -25 -38 -29 -85 -29 -50 0 -59 3 -85 33
l-29 32 0 145 0 145 25 0 25 0 0 -129z m3000 114 c33 -17 38 -36 15 -55 -13
-10 -19 -10 -35 5 -23 21 -91 25 -114 6 -41 -34 -10 -68 85 -95 30 -8 64 -25
75 -37 26 -29 26 -99 0 -128 -45 -50 -160 -52 -217 -4 l-30 26 20 20 21 21 23
-22 c52 -49 147 -34 147 23 0 29 -30 51 -83 60 -51 10 -99 44 -108 78 -10 38
8 85 40 102 35 19 125 19 161 0z m329 0 c40 -20 51 -61 51 -182 0 -96 2 -105
20 -110 11 -3 20 -14 20 -24 0 -27 -65 -27 -81 0 -12 18 -13 17 -47 -5 -59
-41 -145 -25 -170 31 -34 73 5 137 96 156 91 19 125 52 90 87 -27 27 -148 2
-148 -30 0 -7 -10 -2 -22 10 -20 19 -21 24 -8 36 46 45 143 60 199 31z m1201
0 c38 -20 59 -62 63 -122 l2 -48 -124 -3 -123 -3 7 -27 c10 -41 33 -72 63 -83
40 -16 94 -4 117 26 19 22 23 24 40 11 18 -13 18 -15 1 -41 -34 -53 -129 -71
-196 -37 -94 47 -118 204 -43 292 14 18 36 36 47 40 34 14 115 11 146 -5z
m352 -13 c20 -19 21 -24 7 -37 -13 -13 -19 -12 -56 6 -70 34 -141 2 -113 -51
9 -17 28 -25 112 -45 78 -19 106 -114 50 -168 -41 -39 -113 -47 -175 -19 -52
23 -67 46 -45 68 13 14 19 12 53 -10 55 -37 126 -31 140 13 11 36 -11 57 -79
75 -80 22 -116 54 -116 103 0 25 8 43 30 65 29 29 34 30 100 26 56 -3 75 -8
92 -26z m-5524 -770 c-2 -23 -8 -27 -33 -27 -24 0 -31 5 -33 24 -5 32 23 54
50 40 13 -7 18 -19 16 -37z m162 -165 c0 -219 3 -237 41 -237 18 0 33 -26 23
-41 -10 -16 -61 -9 -88 12 l-26 20 0 230 0 229 25 0 25 0 0 -213z m4830 7 c0
-122 4 -213 10 -225 6 -11 21 -19 36 -19 21 0 25 -4 22 -22 -5 -35 -60 -37
-93 -4 l-25 25 0 226 0 225 25 0 25 0 0 -206z m1188 -41 l2 -243 -30 0 c-23 0
-30 4 -30 20 0 20 0 20 -29 -1 -40 -29 -107 -35 -151 -12 -47 24 -71 71 -77
147 -10 117 49 196 145 196 45 0 97 -21 105 -42 3 -7 6 28 6 78 1 50 4 94 8
98 4 4 16 6 28 4 19 -3 20 -10 23 -245z m-2838 211 c32 -6 90 -57 90 -79 0
-21 -41 -30 -52 -11 -26 47 -138 61 -196 26 -18 -11 -40 -36 -48 -55 -16 -40
-19 -161 -3 -202 25 -67 90 -100 163 -83 56 12 78 39 84 99 l5 51 -67 0 c-64
0 -66 1 -66 25 l0 26 93 -3 92 -3 3 -122 3 -123 -31 0 c-26 0 -30 4 -30 26 l0
26 -30 -26 c-53 -44 -139 -46 -206 -5 -41 25 -81 101 -89 169 -12 104 30 211
97 247 59 30 100 34 188 17z m-4510 -12 c66 -32 81 -113 31 -162 l-29 -29 34
-20 c65 -39 72 -137 15 -195 l-31 -31 -135 -3 -135 -4 0 231 0 231 108 0 c82
0 115 -4 142 -18z m238 -120 l3 -22 18 22 c14 17 29 22 67 22 46 1 49 -1 49
-24 0 -23 -4 -25 -42 -25 -31 0 -49 -6 -65 -23 -21 -21 -23 -33 -26 -147 l-4
-125 -29 0 -29 0 0 168 c0 93 3 172 7 176 15 15 48 1 51 -22z m419 4 c27 -24
28 -27 33 -153 5 -123 6 -128 28 -131 14 -2 22 -10 22 -23 0 -27 -60 -26 -85
1 l-18 20 -24 -22 c-35 -33 -121 -33 -156 0 -32 30 -41 74 -23 116 17 42 23
45 116 71 75 21 75 21 75 55 0 35 0 35 -51 38 -43 2 -56 -1 -82 -23 -31 -26
-31 -26 -42 -5 -13 25 -7 36 34 61 47 29 136 26 173 -5z m363 -3 c0 -18 -28
-64 -85 -140 -47 -63 -88 -120 -92 -128 -4 -13 11 -15 91 -15 89 0 96 -1 96
-20 0 -19 -7 -20 -130 -20 -130 0 -130 0 -130 23 0 15 38 74 95 150 l95 127
-90 0 c-89 0 -90 0 -90 25 l0 25 120 0 120 0 0 -27z m140 -148 l0 -175 -25 0
-25 0 0 175 0 175 25 0 25 0 0 -175z m3608 147 l3 -22 18 22 c14 17 29 22 67
22 46 1 49 -1 49 -24 0 -23 -4 -25 -42 -25 -31 0 -49 -6 -65 -23 -21 -21 -23
-33 -26 -147 l-4 -125 -29 0 -29 0 0 168 c0 93 3 172 7 176 15 15 48 1 51 -22z
m443 3 c30 -27 49 -76 49 -125 l0 -40 -120 0 c-112 0 -120 -1 -120 -19 0 -88
110 -132 176 -70 24 22 54 20 54 -4 0 -18 -39 -53 -73 -66 -75 -29 -167 5
-197 71 -41 90 -15 216 52 258 43 28 145 24 179 -5z m360 2 c37 -25 58 -70 58
-129 l1 -38 -124 0 -124 0 8 -37 c13 -56 41 -78 101 -78 43 0 54 4 74 27 20
24 25 25 41 13 22 -16 13 -37 -30 -69 -21 -16 -42 -21 -89 -21 -108 0 -157 55
-157 177 0 76 21 123 69 155 47 32 125 32 172 0z m199 -3 l0 -26 31 26 c24 20
41 26 80 26 103 0 119 -29 119 -215 l0 -135 -24 0 c-24 0 -24 0 -28 133 -4
153 -9 167 -70 167 -86 0 -108 -40 -108 -195 l0 -105 -30 0 -30 0 0 168 c0 93
3 172 7 175 3 4 17 7 30 7 18 0 23 -5 23 -26z m737 2 c28 -24 28 -26 31 -151
4 -123 4 -126 28 -135 40 -16 30 -40 -16 -40 -30 0 -42 5 -51 21 l-11 21 -25
-24 c-19 -18 -36 -23 -78 -23 -62 0 -101 28 -111 79 -12 65 26 110 108 127 73
16 98 29 98 53 0 33 -19 46 -66 46 -31 0 -51 -7 -72 -25 -26 -22 -31 -23 -42
-10 -52 62 140 119 207 61z m203 -2 l0 -26 31 26 c24 20 41 26 80 26 103 0
119 -29 119 -215 l0 -135 -24 0 c-24 0 -24 0 -28 133 -4 153 -9 167 -70 167
-86 0 -108 -40 -108 -195 l0 -105 -30 0 -30 0 0 168 c0 93 3 172 7 175 3 4 17
7 30 7 18 0 23 -5 23 -26z"/>
<path d="M7604 13137 c-53 -46 -43 -192 16 -222 36 -19 63 -19 99 0 39 20 54
63 49 136 -4 52 -9 66 -32 86 -37 31 -95 31 -132 0z"/>
<path d="M8015 13136 c-28 -28 -40 -80 -31 -140 19 -125 172 -130 194 -6 18
103 -21 170 -99 170 -29 0 -47 -7 -64 -24z"/>
<path d="M1754 13137 c-22 -19 -28 -34 -32 -79 -6 -77 12 -125 53 -145 43 -20
98 -10 124 23 40 51 35 160 -10 205 -28 28 -100 26 -135 -4z"/>
<path d="M3061 13141 c-44 -44 -49 -156 -9 -206 24 -30 78 -42 119 -25 45 19
62 61 57 138 -4 55 -8 68 -32 88 -35 31 -107 33 -135 5z"/>
<path d="M7290 13023 c-69 -19 -80 -28 -80 -67 0 -42 16 -56 61 -56 55 0 81
26 87 88 2 29 1 51 -4 51 -5 -1 -34 -8 -64 -16z"/>
<path d="M8470 13162 c-32 -5 -56 -27 -69 -63 l-10 -29 95 0 c85 0 94 2 94 19
0 26 -36 68 -62 72 -13 3 -34 3 -48 1z"/>
<path d="M9354 12247 c-53 -46 -43 -192 16 -222 36 -19 63 -19 99 0 39 20 54
63 49 136 -4 52 -9 66 -32 86 -37 31 -95 31 -132 0z"/>
<path d="M2040 12310 l0 -70 75 0 c88 0 115 17 115 74 0 51 -28 66 -117 66
l-73 0 0 -70z"/>
<path d="M2040 12106 l0 -86 88 0 c80 0 91 2 110 23 28 29 29 86 3 118 -17 21
-29 24 -110 27 l-91 4 0 -86z"/>
<path d="M2791 12130 c-66 -19 -81 -30 -81 -67 0 -54 87 -74 128 -30 22 23 43
118 26 116 -5 -1 -38 -9 -73 -19z"/>
<path d="M7313 12268 c-30 -8 -63 -48 -63 -78 0 -6 34 -10 90 -10 87 0 90 1
90 23 0 50 -56 81 -117 65z"/>
<path d="M7683 12268 c-34 -9 -63 -41 -63 -70 0 -16 10 -18 90 -18 75 0 90 3
90 16 0 12 -15 49 -25 62 -9 11 -66 17 -92 10z"/>
<path d="M8675 12139 c-16 -4 -42 -10 -57 -14 -35 -7 -58 -31 -58 -60 0 -56
80 -76 125 -30 19 18 25 35 25 70 0 25 -1 45 -2 44 -2 -1 -16 -5 -33 -10z"/>
<path d="M2640 9575 c-818 -99 -1529 -558 -1947 -1255 -187 -312 -307 -662
-354 -1035 -22 -165 -16 -513 10 -684 68 -448 236 -849 504 -1204 110 -146
336 -376 467 -477 619 -476 1384 -657 2135 -505 387 79 728 230 1045 466 151
112 414 371 516 509 372 503 552 1071 531 1675 -30 863 -463 1630 -1187 2104
-345 226 -737 363 -1172 410 -128 14 -417 12 -548 -4z m545 -1497 c8 -22 -11
-48 -34 -48 -38 0 -56 51 -25 68 23 13 52 3 59 -20z m865 -68 l0 -40 55 0 c52
0 55 -1 55 -25 0 -24 -3 -25 -55 -25 l-55 0 0 -114 c0 -91 3 -118 16 -130 18
-18 38 -20 64 -6 15 8 21 6 31 -11 9 -17 8 -23 -2 -30 -26 -17 -62 -22 -98
-13 -56 14 -71 54 -71 192 l0 112 -31 0 c-26 0 -30 3 -27 23 2 16 11 23 31 25
23 3 27 8 27 37 0 24 5 35 18 38 38 10 42 7 42 -33z m-1290 -20 c0 -9 -9 -29
-20 -42 -18 -24 -19 -28 -4 -58 14 -27 15 -39 5 -71 -15 -50 -56 -78 -121 -83
-56 -4 -76 -16 -67 -40 5 -12 21 -16 59 -16 113 -1 168 -30 168 -91 0 -78 -51
-114 -160 -114 -88 0 -131 19 -150 64 -17 43 -5 80 31 95 26 11 28 14 15 26
-26 20 -20 68 9 82 l25 11 -25 22 c-32 31 -42 88 -22 131 23 48 68 68 138 61
56 -5 58 -4 68 23 7 22 14 27 30 23 12 -3 21 -13 21 -23z m-803 -44 c28 -24
28 -26 31 -151 4 -123 4 -126 28 -135 40 -16 30 -40 -16 -40 -30 0 -42 5 -51
21 l-11 21 -25 -24 c-19 -18 -36 -23 -78 -23 -62 0 -101 28 -111 79 -12 65 26
110 108 127 73 16 98 29 98 53 0 33 -19 46 -66 46 -31 0 -51 -7 -72 -25 -26
-22 -31 -23 -42 -10 -52 62 140 119 207 61z m201 -4 l3 -23 30 26 c23 18 42
25 74 25 105 0 125 -36 125 -219 l0 -131 -30 0 -30 0 0 134 c0 155 -5 166 -74
166 -33 0 -48 -6 -67 -26 -22 -24 -24 -34 -27 -150 l-4 -124 -29 0 -29 0 0
168 c0 93 3 172 7 176 15 15 48 1 51 -22z m750 0 l3 -22 18 22 c14 17 29 22
67 22 46 1 49 -1 49 -24 0 -23 -4 -25 -42 -25 -31 0 -49 -6 -65 -23 -21 -21
-23 -33 -26 -147 l-4 -125 -29 0 -29 0 0 168 c0 93 3 172 7 176 15 15 48 1 51
-22z m270 -149 l2 -173 -30 0 -30 0 0 176 0 175 28 -3 27 -3 3 -172z m343 152
c30 -27 49 -76 49 -125 l0 -40 -120 0 c-112 0 -120 -1 -120 -19 0 -89 110
-132 176 -70 18 17 28 20 45 13 l20 -9 -22 -29 c-66 -84 -216 -69 -259 26 -41
90 -15 216 52 258 43 28 145 24 179 -5z m319 10 c33 -17 38 -36 15 -55 -13
-10 -19 -10 -35 5 -23 21 -91 25 -114 6 -41 -34 -10 -68 85 -95 30 -8 64 -25
75 -37 26 -29 26 -99 0 -128 -45 -50 -160 -52 -217 -4 l-30 26 20 20 21 21 23
-22 c52 -49 147 -34 147 23 0 29 -30 51 -83 60 -51 10 -99 44 -108 78 -10 38
8 85 40 102 35 19 125 19 161 0z m-1382 -997 l2 -228 -30 0 -30 0 0 231 0 230
28 -3 27 -3 3 -227z m172 93 l0 -29 29 29 c23 22 39 29 70 29 44 0 56 -10 46
-41 -6 -16 -12 -19 -32 -14 -35 8 -78 -11 -92 -41 -6 -14 -11 -76 -11 -139 l0
-115 -30 0 -30 0 0 175 0 175 25 0 c21 0 25 -5 25 -29z m409 14 c40 -20 51
-61 51 -182 0 -96 2 -105 20 -110 11 -3 20 -14 20 -24 0 -27 -65 -27 -81 0
-12 18 -13 17 -47 -5 -59 -41 -145 -25 -170 31 -34 73 5 137 96 156 91 19 125
52 90 87 -27 27 -148 2 -148 -30 0 -7 -10 -2 -22 10 -20 19 -21 24 -8 36 46
45 143 60 199 31z m219 -13 l3 -23 30 26 c23 18 42 25 74 25 105 0 125 -36
125 -219 l0 -131 -30 0 -30 0 0 134 c0 155 -5 166 -74 166 -33 0 -48 -6 -67
-26 -22 -24 -24 -34 -27 -150 l-4 -124 -29 0 -29 0 0 168 c0 93 3 172 7 176
15 15 48 1 51 -22z"/>
<path d="M2566 7904 c-21 -21 -21 -88 0 -105 9 -7 34 -14 56 -14 47 0 68 22
68 71 0 43 -23 64 -70 64 -22 0 -45 -7 -54 -16z"/>
<path d="M2563 7622 c-49 -8 -58 -67 -13 -89 32 -16 108 -16 140 0 36 18 41
74 8 81 -36 8 -111 12 -135 8z"/>
<path d="M1895 7789 c-16 -4 -42 -10 -57 -14 -35 -7 -58 -31 -58 -60 0 -56 80
-76 125 -30 19 18 25 35 25 70 0 25 -1 45 -2 44 -2 -1 -16 -5 -33 -10z"/>
<path d="M3393 7918 c-30 -8 -63 -48 -63 -78 0 -6 34 -10 90 -10 87 0 90 1 90
23 0 50 -56 81 -117 65z"/>
<path d="M2960 6893 c-69 -19 -80 -28 -80 -67 0 -42 16 -56 61 -56 55 0 81 26
87 88 2 29 1 51 -4 51 -5 -1 -34 -8 -64 -16z"/>
<path d="M7804 9575 c-675 -74 -1324 -447 -1737 -1000 -264 -355 -420 -731
-489 -1185 -20 -134 -17 -577 5 -718 73 -453 259 -876 539 -1223 100 -124 318
-335 444 -430 262 -197 575 -349 884 -430 242 -63 336 -73 660 -74 324 0 372
6 625 70 987 252 1719 1064 1882 2088 25 162 25 597 0 752 -74 442 -230 813
-487 1154 -543 721 -1416 1095 -2326 996z m946 -1075 l0 -40 55 0 c52 0 55 -1
55 -25 0 -24 -3 -25 -55 -25 l-55 0 0 -114 c0 -91 3 -118 16 -130 18 -18 38
-20 64 -6 15 8 21 6 31 -11 9 -17 8 -23 -2 -30 -26 -17 -62 -22 -98 -13 -56
14 -71 54 -71 192 l0 112 -31 0 c-26 0 -30 3 -27 23 2 16 11 23 31 25 23 3 27
8 27 37 0 34 1 34 53 44 4 0 7 -17 7 -39z m-1320 -66 l0 -26 31 26 c46 39 111
37 150 -5 24 -26 30 -28 35 -15 10 25 58 46 104 46 33 0 48 -6 71 -29 l29 -29
0 -146 0 -146 -25 0 -25 0 0 128 c0 151 -8 172 -69 172 -27 0 -44 -7 -62 -26
-22 -24 -24 -35 -28 -150 -3 -123 -3 -124 -27 -124 l-24 0 0 123 c0 149 -8
171 -66 175 -32 2 -44 -2 -64 -23 -23 -25 -25 -35 -28 -151 -4 -124 -4 -124
-28 -124 l-24 0 0 175 0 175 25 0 c20 0 25 -5 25 -26z m761 3 c48 -32 69 -79
69 -157 0 -85 -22 -127 -81 -158 -34 -18 -55 -22 -92 -19 -60 5 -95 30 -125
88 -45 86 -14 216 61 253 48 24 127 21 168 -7z m350 6 c32 -19 36 -34 14 -53
-13 -10 -19 -10 -35 5 -23 21 -91 25 -114 6 -41 -34 -10 -68 85 -95 30 -8 64
-25 75 -37 26 -29 26 -99 0 -128 -45 -50 -160 -52 -217 -4 -30 26 -30 26 -11
46 20 19 20 19 43 -2 51 -47 141 -34 147 21 4 32 -23 53 -81 63 -51 10 -99 44
-108 78 -10 38 8 85 40 102 37 20 126 19 162 -2z m9 -771 c0 -41 -51 -57 -70
-22 -8 15 -6 24 10 40 16 16 25 18 40 10 11 -6 20 -19 20 -28z m-433 12 c14
-38 -41 -71 -66 -40 -7 8 -10 24 -6 36 8 25 62 28 72 4z m173 -74 l0 -40 55 0
c52 0 55 -1 55 -25 0 -24 -3 -25 -55 -25 l-55 0 0 -108 c0 -81 4 -113 16 -130
16 -24 44 -28 74 -12 15 8 20 6 25 -11 10 -31 -10 -44 -66 -44 -43 0 -54 4
-75 28 -23 26 -24 35 -24 153 l0 124 -30 0 c-25 0 -30 4 -30 25 0 21 5 25 30
25 27 0 30 3 30 34 0 33 6 39 43 45 4 0 7 -17 7 -39z m-1310 -65 l0 -24 36 24
c77 53 177 24 209 -59 26 -69 18 -172 -18 -219 -47 -62 -141 -74 -201 -26
l-26 20 0 -90 c0 -90 0 -91 -25 -91 l-25 0 0 245 0 245 25 0 c20 0 25 -5 25
-25z m580 6 c100 -53 106 -243 9 -314 -69 -50 -190 -23 -228 52 -27 52 -28
151 -3 201 37 75 142 104 222 61z m372 -9 c20 -19 21 -24 7 -37 -13 -13 -19
-12 -56 6 -70 34 -141 2 -113 -51 9 -17 28 -25 112 -45 15 -4 39 -18 53 -31
34 -31 36 -101 3 -132 -49 -45 -117 -54 -186 -22 -48 22 -62 45 -40 66 13 14
19 12 53 -10 55 -37 126 -31 140 13 10 33 -11 58 -62 70 -26 7 -62 19 -79 27
-51 24 -69 88 -38 132 23 33 51 42 122 39 48 -2 67 -8 84 -25z m178 -147 l0
-175 -30 0 -30 0 0 168 c0 93 3 172 7 175 3 4 17 7 30 7 l23 0 0 -175z m430 0
l0 -175 -25 0 -25 0 0 175 0 175 25 0 25 0 0 -175z m179 45 c26 -69 50 -134
55 -145 6 -15 20 13 63 128 50 133 58 147 79 147 14 0 24 -6 24 -14 0 -7 -18
-62 -41 -122 -23 -60 -50 -133 -61 -161 -19 -51 -21 -53 -57 -53 l-38 0 -62
163 c-33 89 -61 168 -61 175 0 8 10 12 26 10 24 -3 31 -15 73 -128z m532 105
c30 -27 49 -76 49 -125 l0 -40 -120 0 c-112 0 -120 -1 -120 -19 0 -88 110
-132 176 -70 24 22 54 20 54 -4 0 -18 -39 -53 -73 -66 -75 -29 -167 5 -197 71
-41 90 -15 216 52 258 43 28 145 24 179 -5z m-1451 -938 c0 -219 3 -237 41
-237 18 0 33 -26 23 -41 -10 -16 -61 -9 -88 12 l-26 20 0 230 0 229 25 0 25 0
0 -213z m1240 175 c0 -41 -51 -57 -70 -22 -8 15 -6 24 10 40 16 16 25 18 40
10 11 -6 20 -19 20 -28z m-2075 -159 c32 -93 64 -181 70 -196 11 -27 16 -16
81 167 l69 196 43 0 42 0 0 -230 0 -230 -30 0 -30 0 -1 188 0 187 -67 -185
c-66 -182 -68 -185 -97 -188 l-31 -3 -66 183 -67 183 0 -182 -1 -183 -30 0
-30 0 0 230 0 230 43 0 42 0 60 -167z m634 31 l31 -26 0 -113 c0 -127 4 -145
31 -145 12 0 19 -7 19 -20 0 -29 -63 -28 -84 1 l-14 21 -21 -21 c-11 -11 -36
-23 -55 -27 -80 -15 -136 27 -136 101 0 60 30 89 108 106 68 14 102 33 102 57
0 29 -21 42 -71 42 -36 0 -55 -6 -76 -24 -29 -24 -29 -24 -42 -4 -10 16 -10
23 1 35 21 26 69 42 125 43 41 0 58 -5 82 -26z m531 11 c38 -20 50 -64 50
-188 0 -90 2 -99 20 -104 11 -3 20 -14 20 -24 0 -27 -65 -27 -81 0 -12 18 -13
17 -47 -5 -109 -74 -239 46 -157 145 19 22 40 33 83 42 91 19 125 52 90 87
-27 27 -148 2 -148 -30 0 -7 -10 -2 -22 10 -20 19 -21 24 -8 36 46 45 143 60
200 31z m215 -82 c21 -54 46 -118 56 -143 l17 -45 12 30 c91 244 94 250 123
253 35 4 40 26 -63 -239 -43 -110 -89 -212 -101 -225 -42 -45 -139 -45 -139 1
0 21 3 23 34 18 44 -7 73 10 91 53 14 34 13 38 -52 202 -36 92 -68 173 -70
180 -3 8 5 12 25 12 29 0 32 -4 67 -97z m502 73 c27 -23 27 -26 11 -42 -16
-16 -19 -16 -35 -2 -25 22 -75 31 -106 19 -21 -8 -27 -17 -27 -41 0 -33 4 -36
105 -67 52 -16 62 -23 79 -56 16 -34 17 -42 5 -74 -20 -51 -69 -76 -136 -69
-84 7 -142 52 -110 83 12 12 20 11 52 -11 63 -43 145 -26 145 29 0 30 -28 49
-97 65 -56 13 -103 54 -103 90 0 65 45 99 132 100 46 0 62 -5 85 -24z m183
-151 l0 -175 -25 0 -25 0 0 175 0 175 25 0 25 0 0 -175z m310 160 c38 -20 50
-64 50 -188 0 -90 2 -99 20 -104 11 -3 20 -14 20 -24 0 -27 -65 -27 -81 0 -12
18 -13 17 -47 -5 -109 -74 -239 46 -157 145 19 22 40 33 83 42 91 19 125 52
90 87 -27 27 -148 2 -148 -30 0 -7 -10 -2 -22 10 -20 19 -21 24 -8 36 46 45
143 60 200 31z"/>
<path d="M8034 8387 c-22 -19 -28 -34 -32 -79 -6 -77 12 -125 53 -145 43 -20
98 -10 124 23 40 51 35 160 -10 205 -28 28 -100 26 -135 -4z"/>
<path d="M7027 7509 c-43 -25 -59 -120 -33 -184 30 -70 115 -86 164 -30 41 48
25 200 -23 219 -26 9 -88 7 -108 -5z"/>
<path d="M7411 7501 c-44 -44 -49 -156 -9 -206 24 -30 78 -42 119 -25 45 19
62 61 57 138 -4 55 -8 68 -32 88 -35 31 -107 33 -135 5z"/>
<path d="M9122 7519 c-23 -7 -38 -20 -49 -44 -9 -19 -14 -37 -11 -40 3 -3 46
-4 95 -3 l89 3 -8 33 c-7 25 -18 37 -43 48 -19 8 -36 14 -37 13 -2 0 -18 -5
-36 -10z"/>
<path d="M7505 6491 c-44 -12 -63 -23 -74 -42 -13 -24 -13 -29 2 -53 13 -20
26 -26 51 -26 48 0 65 8 81 41 16 29 21 100 8 98 -5 -1 -35 -9 -68 -18z"/>
<path d="M8050 6493 c-69 -19 -80 -28 -80 -67 0 -42 16 -56 61 -56 55 0 81 26
87 88 2 29 1 51 -4 51 -5 -1 -34 -8 -64 -16z"/>
<path d="M9260 6493 c-69 -19 -80 -28 -80 -67 0 -42 16 -56 61 -56 55 0 81 26
87 88 2 29 1 51 -4 51 -5 -1 -34 -8 -64 -16z"/>
</g>
</svg>
